<svg width="62" height="60" viewBox="0 0 62 60" fill="none" xmlns="http://www.w3.org/2000/svg">
<path d="M41.0057 54H22.0057V60H41.0057V54Z" fill="black"/>
<path d="M41.0057 54H22.0057V60H41.0057V54Z" fill="url(#paint0_linear)"/>
<path d="M14.1727 0.452287L0.73761 13.8873L4.27315 17.4229L17.7082 3.98783L14.1727 0.452287Z" fill="black"/>
<path d="M14.1727 0.452287L0.73761 13.8873L4.27315 17.4229L17.7082 3.98783L14.1727 0.452287Z" fill="url(#paint1_linear)"/>
<path d="M48.1127 0.321779L44.5771 3.8573L58.0122 17.2924L61.5477 13.7568L48.1127 0.321779Z" fill="black"/>
<path d="M48.1127 0.321779L44.5771 3.8573L58.0122 17.2924L61.5477 13.7568L48.1127 0.321779Z" fill="url(#paint2_linear)"/>
<path d="M43.5563 7.7066L40.865 7.59253C40.089 7.48299 39.2981 7.55529 38.5548 7.80375C37.8115 8.0522 37.1361 8.47 36.5819 9.02417L31.0774 14.5286L25.3239 8.77509C24.8243 8.28701 24.2011 7.94445 23.5213 7.78429C22.8415 7.62412 22.1309 7.65243 21.466 7.86615C20.8388 8.05691 20.1715 8.07364 19.5355 7.91457C18.8994 7.75549 18.3186 7.42658 17.855 6.963L17.0011 6.10912L6.39447 16.7157L8.12247 18.4437L8.00839 21.1349C7.89885 21.911 7.97115 22.7019 8.2196 23.4452C8.46805 24.1885 8.88584 24.8639 9.44 25.4181L19.0524 35.0305C19.1809 33.7687 19.7855 32.6033 20.7431 31.7716L17.7482 28.7767L18.4553 28.0696L21.5835 31.1978C22.0269 30.9454 22.5067 30.763 23.0059 30.6572V26.9633L21.2837 25.2411L21.9908 24.534L23.0059 25.5491V20.1992C22.9947 19.3149 23.3086 18.4573 23.8878 17.7891C24.4671 17.1209 25.2715 16.6886 26.1484 16.5742C26.4792 16.5421 26.8127 16.5572 27.1392 16.619L25.9097 15.3895L26.6169 14.6824L28.413 16.4786C28.7311 15.8622 29.2232 15.3528 29.8283 15.0136C30.4333 14.6744 31.1246 14.5202 31.8164 14.5703C32.6513 14.6678 33.4258 15.0543 34.0056 15.6629C34.5854 16.2715 34.9341 17.0637 34.9912 17.9023C35.5595 17.6322 36.1893 17.5176 36.8164 17.5703C37.7075 17.677 38.5272 18.1108 39.1165 18.7876C39.7059 19.4645 40.0228 20.3361 40.0058 21.2334V24.6572C40.9159 24.8473 41.755 25.2872 42.4291 25.9275C43.1031 26.5678 43.5855 27.3833 43.8219 28.2824L46.6105 25.4939L47.3176 26.201L44.0023 29.5163C44.0024 29.53 44.0059 29.5428 44.0059 29.5566V32.8767C44.9043 32.7827 45.7436 32.3845 46.3848 31.7482L53.2249 24.9081C53.713 24.4085 54.0556 23.7853 54.2157 23.1055C54.3759 22.4257 54.3475 21.7151 54.1338 21.0502C53.943 20.423 53.9263 19.7557 54.0854 19.1196C54.2445 18.4836 54.5734 17.9027 55.037 17.4391L55.8909 16.5853L45.2843 5.97864L43.5563 7.7066Z" fill="black"/>
<path d="M43.5563 7.7066L40.865 7.59253C40.089 7.48299 39.2981 7.55529 38.5548 7.80375C37.8115 8.0522 37.1361 8.47 36.5819 9.02417L31.0774 14.5286L25.3239 8.77509C24.8243 8.28701 24.2011 7.94445 23.5213 7.78429C22.8415 7.62412 22.1309 7.65243 21.466 7.86615C20.8388 8.05691 20.1715 8.07364 19.5355 7.91457C18.8994 7.75549 18.3186 7.42658 17.855 6.963L17.0011 6.10912L6.39447 16.7157L8.12247 18.4437L8.00839 21.1349C7.89885 21.911 7.97115 22.7019 8.2196 23.4452C8.46805 24.1885 8.88584 24.8639 9.44 25.4181L19.0524 35.0305C19.1809 33.7687 19.7855 32.6033 20.7431 31.7716L17.7482 28.7767L18.4553 28.0696L21.5835 31.1978C22.0269 30.9454 22.5067 30.763 23.0059 30.6572V26.9633L21.2837 25.2411L21.9908 24.534L23.0059 25.5491V20.1992C22.9947 19.3149 23.3086 18.4573 23.8878 17.7891C24.4671 17.1209 25.2715 16.6886 26.1484 16.5742C26.4792 16.5421 26.8127 16.5572 27.1392 16.619L25.9097 15.3895L26.6169 14.6824L28.413 16.4786C28.7311 15.8622 29.2232 15.3528 29.8283 15.0136C30.4333 14.6744 31.1246 14.5202 31.8164 14.5703C32.6513 14.6678 33.4258 15.0543 34.0056 15.6629C34.5854 16.2715 34.9341 17.0637 34.9912 17.9023C35.5595 17.6322 36.1893 17.5176 36.8164 17.5703C37.7075 17.677 38.5272 18.1108 39.1165 18.7876C39.7059 19.4645 40.0228 20.3361 40.0058 21.2334V24.6572C40.9159 24.8473 41.755 25.2872 42.4291 25.9275C43.1031 26.5678 43.5855 27.3833 43.8219 28.2824L46.6105 25.4939L47.3176 26.201L44.0023 29.5163C44.0024 29.53 44.0059 29.5428 44.0059 29.5566V32.8767C44.9043 32.7827 45.7436 32.3845 46.3848 31.7482L53.2249 24.9081C53.713 24.4085 54.0556 23.7853 54.2157 23.1055C54.3759 22.4257 54.3475 21.7151 54.1338 21.0502C53.943 20.423 53.9263 19.7557 54.0854 19.1196C54.2445 18.4836 54.5734 17.9027 55.037 17.4391L55.8909 16.5853L45.2843 5.97864L43.5563 7.7066Z" fill="url(#paint3_linear)"/>
<path d="M28.8804 19.6895C28.8044 19.0399 28.476 18.4462 27.966 18.0367C27.4559 17.6272 26.8053 17.4347 26.1546 17.5009C25.5234 17.588 24.9463 17.904 24.5329 18.3888C24.1194 18.8736 23.8986 19.4935 23.9124 20.1305V31.4879C22.8515 31.4879 21.8341 31.9093 21.0839 32.6594C20.3338 33.4096 19.9124 34.427 19.9124 35.4879V45.1613C19.9205 45.8597 20.1189 46.5426 20.4864 47.1365C20.8538 47.7304 21.3763 48.2129 21.9976 48.5319C22.576 48.8406 23.0597 49.3006 23.3969 49.8628C23.7342 50.425 23.9123 51.0683 23.9124 51.7239V52.9315H38.9124V50.4879L40.896 48.6655C41.5222 48.1942 42.0303 47.5838 42.3803 46.8825C42.7302 46.1812 42.9123 45.4082 42.9124 44.6245V29.4879C42.9124 28.427 42.4909 27.4096 41.7408 26.6594C40.9906 25.9093 39.9732 25.4879 38.9124 25.4879V21.1653C38.9293 20.518 38.7062 19.8874 38.286 19.3949C37.8657 18.9024 37.2781 18.5828 36.6362 18.4977C36.0063 18.442 35.3787 18.6279 34.8807 19.0177C34.3826 19.4074 34.0513 19.9719 33.9539 20.5967H34.4124V36.0401H33.4124V20.5967H33.9124V18.1653C33.9293 17.518 33.7062 16.8874 33.286 16.3949C32.8657 15.9024 32.2781 15.5828 31.6362 15.4977C31.2904 15.4666 30.942 15.508 30.613 15.619C30.2841 15.73 29.9819 15.9084 29.7256 16.1426C29.4694 16.3769 29.2647 16.6619 29.1247 16.9796C28.9847 17.2973 28.9124 17.6407 28.9124 17.9879V19.6895H29.4124V35.1329H28.4124V19.6895H28.8804ZM24.3115 40.0401H23.3115V32.0401H24.3115V40.0401ZM38.4124 25.7983H39.4124V36.2417H38.4124V25.7983Z" fill="black"/>
<path d="M28.8804 19.6895C28.8044 19.0399 28.476 18.4462 27.966 18.0367C27.4559 17.6272 26.8053 17.4347 26.1546 17.5009C25.5234 17.588 24.9463 17.904 24.5329 18.3888C24.1194 18.8736 23.8986 19.4935 23.9124 20.1305V31.4879C22.8515 31.4879 21.8341 31.9093 21.0839 32.6594C20.3338 33.4096 19.9124 34.427 19.9124 35.4879V45.1613C19.9205 45.8597 20.1189 46.5426 20.4864 47.1365C20.8538 47.7304 21.3763 48.2129 21.9976 48.5319C22.576 48.8406 23.0597 49.3006 23.3969 49.8628C23.7342 50.425 23.9123 51.0683 23.9124 51.7239V52.9315H38.9124V50.4879L40.896 48.6655C41.5222 48.1942 42.0303 47.5838 42.3803 46.8825C42.7302 46.1812 42.9123 45.4082 42.9124 44.6245V29.4879C42.9124 28.427 42.4909 27.4096 41.7408 26.6594C40.9906 25.9093 39.9732 25.4879 38.9124 25.4879V21.1653C38.9293 20.518 38.7062 19.8874 38.286 19.3949C37.8657 18.9024 37.2781 18.5828 36.6362 18.4977C36.0063 18.442 35.3787 18.6279 34.8807 19.0177C34.3826 19.4074 34.0513 19.9719 33.9539 20.5967H34.4124V36.0401H33.4124V20.5967H33.9124V18.1653C33.9293 17.518 33.7062 16.8874 33.286 16.3949C32.8657 15.9024 32.2781 15.5828 31.6362 15.4977C31.2904 15.4666 30.942 15.508 30.613 15.619C30.2841 15.73 29.9819 15.9084 29.7256 16.1426C29.4694 16.3769 29.2647 16.6619 29.1247 16.9796C28.9847 17.2973 28.9124 17.6407 28.9124 17.9879V19.6895H29.4124V35.1329H28.4124V19.6895H28.8804ZM24.3115 40.0401H23.3115V32.0401H24.3115V40.0401ZM38.4124 25.7983H39.4124V36.2417H38.4124V25.7983Z" fill="url(#paint4_linear)"/>
<defs>
<linearGradient id="paint0_linear" x1="31.5057" y1="54" x2="31.5057" y2="60" gradientUnits="userSpaceOnUse">
<stop stop-color="#EF8080"/>
<stop offset="1" stop-color="#F0145A"/>
</linearGradient>
<linearGradient id="paint1_linear" x1="7.45513" y1="7.16981" x2="10.9907" y2="10.7053" gradientUnits="userSpaceOnUse">
<stop stop-color="#EF8080"/>
<stop offset="1" stop-color="#F0145A"/>
</linearGradient>
<linearGradient id="paint2_linear" x1="46.3449" y1="2.08954" x2="59.78" y2="15.5246" gradientUnits="userSpaceOnUse">
<stop stop-color="#EF8080"/>
<stop offset="1" stop-color="#F0145A"/>
</linearGradient>
<linearGradient id="paint3_linear" x1="31.1427" y1="5.97864" x2="31.1427" y2="35.0305" gradientUnits="userSpaceOnUse">
<stop stop-color="#EF8080"/>
<stop offset="1" stop-color="#F0145A"/>
</linearGradient>
<linearGradient id="paint4_linear" x1="31.4124" y1="15.4877" x2="31.4124" y2="52.9315" gradientUnits="userSpaceOnUse">
<stop stop-color="#EF8080"/>
<stop offset="1" stop-color="#F0145A"/>
</linearGradient>
</defs>
</svg>
