<svg width="46" height="60" viewBox="0 0 46 60" fill="none" xmlns="http://www.w3.org/2000/svg">
<path d="M32.2317 33.6965C34.5839 33.6965 36.9096 34.2849 38.9577 35.3979C39.3296 35.5984 39.6709 35.8372 40.0194 36.0672C43.3807 29.4873 45.1545 22.5283 45.1545 15.7393C45.1545 15.3578 45.1545 14.9639 45.1423 14.5701C45.1177 14.0163 44.7238 13.5362 44.1699 13.4132C36.7361 11.7886 30.0038 7.76394 24.7115 1.78242L23.9238 0.883903C23.6899 0.61317 23.3577 0.465484 23.0007 0.465484C22.6192 0.41628 22.3238 0.600851 22.0899 0.859339L20.8838 2.18859C15.8623 7.71473 9.53609 11.5301 2.59461 13.2286L1.79458 13.4254C1.25303 13.5486 0.871499 14.0286 0.85918 14.5824C0.41612 31.887 10.6315 44.3301 15.0377 48.8839C16.2306 50.1087 17.5606 51.3261 18.8253 52.3324C18.3509 50.9016 18.0779 49.3961 18.0779 47.8504C18.0779 40.0457 24.427 33.6965 32.2317 33.6965Z" fill="url(#paint0_linear)"/>
<path d="M37.7822 37.5609C36.0837 36.6379 34.1637 36.1578 32.2314 36.1578C25.7822 36.1578 20.5391 41.4009 20.5391 47.8501C20.5391 50.0286 21.1299 52.1578 22.2622 53.9794C24.416 57.4625 28.133 59.5425 32.2314 59.5425C38.6683 59.5425 43.9237 54.2994 43.9237 47.8501C43.9237 43.5425 41.5729 39.604 37.7822 37.5609ZM38.2196 46.2934L29.0747 53.4099L25.9527 48.5265C25.5862 47.9538 25.7538 47.193 26.3265 46.827C26.8999 46.4604 27.6613 46.6293 28.0261 47.2008L29.6937 49.809L36.7076 44.351C37.243 43.9334 38.0171 44.0289 38.4347 44.5662C38.8524 45.1028 38.7556 45.8763 38.2196 46.2934Z" fill="url(#paint1_linear)"/>
<defs>
<linearGradient id="paint0_linear" x1="22.9999" y1="0.45752" x2="22.9999" y2="52.3324" gradientUnits="userSpaceOnUse">
<stop stop-color="#EF8080"/>
<stop offset="1" stop-color="#F0145A"/>
</linearGradient>
<linearGradient id="paint1_linear" x1="32.2314" y1="36.1578" x2="32.2314" y2="59.5425" gradientUnits="userSpaceOnUse">
<stop stop-color="#EF8080"/>
<stop offset="1" stop-color="#F0145A"/>
</linearGradient>
</defs>
</svg>
