<svg width="48" height="48" viewBox="0 0 48 48" fill="none" xmlns="http://www.w3.org/2000/svg">
<path d="M15.7339 20.125C16.8379 20.125 17.7339 19.229 17.7339 18.125V10.325C17.7339 6.838 20.5709 4 24.0579 4C27.5449 4 30.3829 6.838 30.3829 10.325V18.125C30.3829 19.229 31.2779 20.125 32.3829 20.125C33.4869 20.125 34.3829 19.229 34.3829 18.125V10.325C34.3839 4.632 29.7519 0 24.0579 0C18.3659 0 13.7339 4.632 13.7339 10.325V18.125C13.7339 19.229 14.6299 20.125 15.7339 20.125Z" fill="url(#paint0_linear)"/>
<path d="M47 15.631H36.384V18.125C36.384 20.331 34.59 22.125 32.384 22.125C30.178 22.125 28.384 20.331 28.384 18.125V15.631H19.735V18.125C19.735 20.331 17.941 22.125 15.735 22.125C13.529 22.125 11.735 20.331 11.735 18.125V15.631H0.999971C0.447971 15.631 0.10697 16.066 0.23797 16.602L7.23597 45.099C7.65797 46.701 9.34397 48 11 48H37C38.658 48 40.342 46.701 40.766 45.099L47.762 16.602C47.893 16.065 47.553 15.631 47 15.631Z" fill="url(#paint1_linear)"/>
<path d="M20.6001 26.4C20.6001 25.6265 21.2266 25 22.0001 25C22.7736 25 23.4001 25.6265 23.4001 26.4V33.35L23.4001 32C23.4001 31.2265 24.0266 30.6 24.8001 30.6C25.5736 30.6 26.2001 31.2265 26.2001 32V33.6764C26.2127 32.9141 26.8346 31.3 27.6 31.3C28.3731 31.3 28.9999 31.9268 29 32.7C29 32.7 29.0411 33.7411 29.1332 33.8033C29.3572 33.3285 29.8402 32 30.4 32C31.1732 32 31.8 32.6268 31.8 33.4V40.4C31.8 41.9463 30.5463 43.2 29 43.2H24.3198C22.8344 43.2 21.4099 42.6099 20.3599 41.5599L18.15 39.35L15 37.9402C15.0051 36.6033 16.0526 36.2 17.1 36.2C18.0023 36.2 18.8136 36.3407 20.6 37.25L20.6001 26.4Z" fill="white"/>
<defs>
<linearGradient id="paint0_linear" x1="24.0584" y1="0" x2="24.0584" y2="20.125" gradientUnits="userSpaceOnUse">
<stop stop-color="#EF8080"/>
<stop offset="1" stop-color="#F0145A"/>
</linearGradient>
<linearGradient id="paint1_linear" x1="24" y1="15.631" x2="24" y2="48" gradientUnits="userSpaceOnUse">
<stop stop-color="#EF8080"/>
<stop offset="1" stop-color="#F0145A"/>
</linearGradient>
</defs>
</svg>
