<svg width="48" height="53" viewBox="0 0 48 53" fill="none" xmlns="http://www.w3.org/2000/svg">
<path fill-rule="evenodd" clip-rule="evenodd" d="M45.4513 30.0764V47.3716C45.4513 50.4649 43.027 53 40.0632 53H7.97024C5.00644 53 2.58215 50.4649 2.58215 47.3716V30.0764H19.2482V37.5872L24.0167 40.7207L28.7852 37.5872V30.0764H45.4513Z" fill="url(#paint0_linear)"/>
<path fill-rule="evenodd" clip-rule="evenodd" d="M20.9185 30.0764V36.6849L24.0166 38.7205L27.1147 36.6849V30.0764H20.9185Z" fill="url(#paint1_linear)"/>
<path fill-rule="evenodd" clip-rule="evenodd" d="M4.07345 10.1426H43.9599C45.8423 10.1426 47.3808 11.8507 47.3808 13.938V24.1912C47.3808 26.2786 45.8423 27.9867 43.9599 27.9867H28.314H19.7194H4.07345C2.19103 27.9867 0.652588 26.2786 0.652588 24.1912V13.938C0.652588 11.8507 2.19103 10.1426 4.07345 10.1426Z" fill="url(#paint2_linear)"/>
<path fill-rule="evenodd" clip-rule="evenodd" d="M15.7119 0.954346H32.3214C33.8646 0.954346 35.1274 2.21714 35.1274 3.7603V8.13768H31.5699V5.55083C31.5699 4.85347 30.9998 4.28097 30.3024 4.28097H17.731C17.0336 4.28097 16.4635 4.85347 16.4635 5.55083V8.13768H12.9059V3.7603C12.9059 2.21714 14.1687 0.954346 15.7119 0.954346Z" fill="url(#paint3_linear)"/>
<defs>
<linearGradient id="paint0_linear" x1="24.0167" y1="30.0764" x2="24.0167" y2="53" gradientUnits="userSpaceOnUse">
<stop stop-color="#EF8080"/>
<stop offset="1" stop-color="#F0145A"/>
</linearGradient>
<linearGradient id="paint1_linear" x1="24.0166" y1="30.0764" x2="24.0166" y2="38.7205" gradientUnits="userSpaceOnUse">
<stop stop-color="#EF8080"/>
<stop offset="1" stop-color="#F0145A"/>
</linearGradient>
<linearGradient id="paint2_linear" x1="24.0167" y1="10.1426" x2="24.0167" y2="27.9867" gradientUnits="userSpaceOnUse">
<stop stop-color="#EF8080"/>
<stop offset="1" stop-color="#F0145A"/>
</linearGradient>
<linearGradient id="paint3_linear" x1="24.0167" y1="0.954346" x2="24.0167" y2="8.13768" gradientUnits="userSpaceOnUse">
<stop stop-color="#EF8080"/>
<stop offset="1" stop-color="#F0145A"/>
</linearGradient>
</defs>
</svg>
