<svg width="1320" height="65" viewBox="0 0 1320 65" fill="none" xmlns="http://www.w3.org/2000/svg">
<path d="M1252.89 52.3604H1250.72L1247.03 56.2275V52.3604H1245.23V61H1247.03V58.5742L1248.39 57.1328L1251.17 61H1253.15L1249.56 55.9639L1252.89 52.3604ZM1260.88 56.6846C1260.88 57.4932 1260.6 58.1699 1260.08 58.7236C1259.54 59.2861 1258.91 59.5586 1258.18 59.5586C1257.44 59.5586 1256.81 59.2861 1256.27 58.7236C1255.73 58.1699 1255.47 57.4932 1255.47 56.6846C1255.47 55.876 1255.73 55.1992 1256.27 54.6367C1256.81 54.083 1257.44 53.8018 1258.18 53.8018C1258.91 53.8018 1259.54 54.083 1260.08 54.6367C1260.6 55.1992 1260.88 55.876 1260.88 56.6846ZM1253.68 56.6846C1253.68 57.8975 1254.12 58.9434 1255.01 59.8398C1255.91 60.7363 1256.96 61.1846 1258.18 61.1846C1259.39 61.1846 1260.44 60.7363 1261.33 59.8398C1262.23 58.9434 1262.68 57.8975 1262.68 56.6846C1262.68 55.4717 1262.23 54.417 1261.33 53.5205C1260.44 52.624 1259.39 52.1758 1258.18 52.1758C1256.96 52.1758 1255.91 52.624 1255.01 53.5205C1254.12 54.417 1253.68 55.4717 1253.68 56.6846ZM1266.46 57.3965H1270.68V61H1272.49V52.3604H1270.68V55.7793H1266.46V52.3604H1264.66V61H1266.46V57.3965ZM1274.11 53.9775H1277.08V61H1278.88V53.9775H1281.85V52.3604H1274.11V53.9775ZM1290.4 61V55.4189C1290.4 54.5049 1290.06 53.7402 1289.39 53.1162C1288.71 52.4922 1287.85 52.1758 1286.79 52.1758C1286.37 52.1758 1285.96 52.2373 1285.56 52.3516C1285.17 52.4658 1284.85 52.5977 1284.62 52.7383C1284.37 52.8877 1284.14 53.0547 1283.93 53.2393C1283.72 53.4238 1283.58 53.5557 1283.52 53.626C1283.46 53.6963 1283.41 53.7578 1283.38 53.8018L1284.54 54.9707L1284.78 54.6631C1284.92 54.4697 1285.18 54.2852 1285.55 54.0918C1285.92 53.8984 1286.34 53.8018 1286.79 53.8018C1287.32 53.8018 1287.75 53.96 1288.09 54.2676C1288.42 54.584 1288.6 54.9619 1288.6 55.4189L1285.44 55.9639C1284.66 56.0957 1284.04 56.4033 1283.6 56.8779C1283.15 57.3613 1282.93 57.959 1282.93 58.6709C1282.93 59.3213 1283.22 59.9102 1283.8 60.4199C1284.38 60.9297 1285.11 61.1846 1285.99 61.1846C1286.29 61.1846 1286.58 61.1406 1286.87 61.0703C1287.16 60.9912 1287.41 60.9033 1287.6 60.8066C1287.8 60.71 1287.97 60.6045 1288.14 60.4814C1288.31 60.3584 1288.42 60.2793 1288.47 60.2266C1288.53 60.1738 1288.57 60.1299 1288.6 60.1123V61.0088L1290.4 61ZM1286.26 59.5674C1285.78 59.5674 1285.42 59.4531 1285.13 59.2422C1284.85 59.0225 1284.72 58.7676 1284.72 58.4775C1284.72 58.1699 1284.82 57.915 1285.02 57.7129C1285.21 57.502 1285.48 57.3701 1285.8 57.3174L1288.6 56.8691V57.0449C1288.6 57.8535 1288.39 58.4688 1287.97 58.9082C1287.56 59.3477 1286.99 59.5674 1286.26 59.5674ZM1300.58 52.3604H1298.41L1294.72 56.2275V52.3604H1292.92V61H1294.72V58.5742L1296.08 57.1328L1298.86 61H1300.84L1297.25 55.9639L1300.58 52.3604ZM1301.38 53.9775H1304.35V61H1306.14V53.9775H1309.11V52.3604H1301.38V53.9775ZM1317.03 52.3604L1312.53 58.0293V52.3604H1310.73V61H1312.34L1316.84 55.3311V61H1318.65V52.3604H1317.03Z" fill="white"/>
<path d="M1147.28 53.9775H1151.51V61H1153.31V52.3604H1145.48V61H1147.28V53.9775ZM1157.91 61.8965C1157.57 62.7402 1157.06 63.1621 1156.38 63.1621C1156.07 63.1621 1155.77 63.1006 1155.47 62.9775V64.6035L1155.6 64.6387C1155.69 64.6738 1155.85 64.709 1156.06 64.7354C1156.27 64.7705 1156.49 64.7793 1156.74 64.7793C1157.39 64.7793 1157.93 64.5684 1158.37 64.1377C1158.81 63.7158 1159.25 62.9688 1159.7 61.8965L1163.58 52.3604H1161.69L1159.16 58.6621L1156.64 52.3604H1154.75L1158.27 61L1157.91 61.8965ZM1173.65 56.7725C1173.65 55.5771 1173.23 54.54 1172.39 53.6699C1171.56 52.7998 1170.6 52.3604 1169.51 52.3604C1169.17 52.3604 1168.84 52.4131 1168.52 52.5098C1168.19 52.6064 1167.93 52.7119 1167.72 52.835C1167.5 52.958 1167.31 53.0898 1167.13 53.248C1166.93 53.4062 1166.81 53.5117 1166.75 53.5732C1166.69 53.6348 1166.64 53.6875 1166.63 53.7227C1166.71 52.791 1167 52.0527 1167.51 51.5078C1168.01 50.9541 1168.68 50.6113 1169.51 50.4795C1170.47 50.3213 1171.26 50.1279 1171.88 49.8994C1172.51 49.6709 1172.88 49.5127 1172.98 49.4248C1173.09 49.3369 1173.17 49.2666 1173.2 49.2227L1172.39 47.8691L1172.1 48.0449C1171.91 48.1504 1171.56 48.291 1171.05 48.458C1170.54 48.6162 1169.97 48.7568 1169.32 48.8623C1167.88 49.0996 1166.78 49.7412 1165.99 50.7959C1165.22 51.8418 1164.82 53.415 1164.82 55.5156C1164.82 57.3525 1165.24 58.7588 1166.06 59.7256C1166.89 60.6924 1167.97 61.1758 1169.32 61.1758C1170.5 61.1758 1171.51 60.7451 1172.37 59.8838C1173.22 59.0225 1173.65 57.9854 1173.65 56.7725ZM1166.8 56.7725C1166.8 55.9814 1167.06 55.3223 1167.55 54.7861C1168.05 54.25 1168.64 53.9775 1169.32 53.9775C1170.01 53.9775 1170.6 54.25 1171.1 54.7861C1171.59 55.3223 1171.85 55.9814 1171.85 56.7725C1171.85 57.5635 1171.59 58.2314 1171.1 58.7588C1170.6 59.2949 1170.01 59.5586 1169.32 59.5586C1168.64 59.5586 1168.05 59.2949 1167.55 58.7588C1167.06 58.2314 1166.8 57.5635 1166.8 56.7725ZM1176.79 52.3604V54.8828C1176.79 56.1221 1176.72 57.0801 1176.58 57.7656C1176.43 58.4512 1176.25 58.8906 1176.04 59.0928C1175.83 59.2861 1175.54 59.3916 1175.17 59.3916C1174.99 59.3828 1174.78 59.3477 1174.54 59.2949V61.0088L1174.7 61.0439C1174.8 61.0791 1174.94 61.1055 1175.12 61.1406C1175.29 61.167 1175.47 61.1846 1175.63 61.1846C1176.27 61.1846 1176.79 61.0176 1177.2 60.7012C1177.6 60.376 1177.94 59.7344 1178.2 58.7852C1178.46 57.8359 1178.59 56.5352 1178.59 54.8916V53.9863H1181.65V61.0088H1183.45V52.3691L1176.79 52.3604ZM1187.87 52.3604H1186.07V61H1187.87V52.3604ZM1188.05 49.6621C1188.05 49.3545 1187.95 49.0996 1187.75 48.8975C1187.54 48.6865 1187.28 48.5898 1186.97 48.5898C1186.66 48.5898 1186.4 48.6865 1186.2 48.8975C1185.99 49.0996 1185.89 49.3545 1185.89 49.6621C1185.89 49.9785 1185.99 50.2334 1186.2 50.4355C1186.4 50.6465 1186.66 50.7432 1186.97 50.7432C1187.28 50.7432 1187.54 50.6465 1187.75 50.4355C1187.95 50.2334 1188.05 49.9785 1188.05 49.6621ZM1198.13 52.3604H1195.97L1192.28 56.2275V52.3604H1190.48V61H1192.28V58.5742L1193.63 57.1328L1196.42 61H1198.4L1194.8 55.9639L1198.13 52.3604ZM1206.77 61V55.4189C1206.77 54.5049 1206.42 53.7402 1205.75 53.1162C1205.08 52.4922 1204.22 52.1758 1203.16 52.1758C1202.74 52.1758 1202.33 52.2373 1201.93 52.3516C1201.54 52.4658 1201.22 52.5977 1200.98 52.7383C1200.74 52.8877 1200.51 53.0547 1200.3 53.2393C1200.09 53.4238 1199.95 53.5557 1199.88 53.626C1199.82 53.6963 1199.78 53.7578 1199.74 53.8018L1200.91 54.9707L1201.15 54.6631C1201.29 54.4697 1201.54 54.2852 1201.91 54.0918C1202.28 53.8984 1202.71 53.8018 1203.16 53.8018C1203.69 53.8018 1204.12 53.96 1204.45 54.2676C1204.79 54.584 1204.96 54.9619 1204.96 55.4189L1201.81 55.9639C1201.03 56.0957 1200.41 56.4033 1199.96 56.8779C1199.51 57.3613 1199.29 57.959 1199.29 58.6709C1199.29 59.3213 1199.58 59.9102 1200.17 60.4199C1200.75 60.9297 1201.47 61.1846 1202.35 61.1846C1202.65 61.1846 1202.94 61.1406 1203.24 61.0703C1203.53 60.9912 1203.78 60.9033 1203.97 60.8066C1204.16 60.71 1204.34 60.6045 1204.51 60.4814C1204.67 60.3584 1204.79 60.2793 1204.84 60.2266C1204.89 60.1738 1204.94 60.1299 1204.96 60.1123V61.0088L1206.77 61ZM1202.63 59.5674C1202.15 59.5674 1201.78 59.4531 1201.5 59.2422C1201.22 59.0225 1201.09 58.7676 1201.09 58.4775C1201.09 58.1699 1201.18 57.915 1201.39 57.7129C1201.58 57.502 1201.84 57.3701 1202.17 57.3174L1204.96 56.8691V57.0449C1204.96 57.8535 1204.75 58.4688 1204.34 58.9082C1203.93 59.3477 1203.36 59.5674 1202.63 59.5674ZM1209.29 61H1216.4V63.1621H1218.2V59.3828H1216.94V52.3604H1215.14V59.3828H1211.09V52.3604H1209.29V61ZM1221.88 52.3604H1220.08V61H1221.88V52.3604ZM1222.07 49.6621C1222.07 49.3545 1221.96 49.0996 1221.76 48.8975C1221.55 48.6865 1221.29 48.5898 1220.99 48.5898C1220.67 48.5898 1220.42 48.6865 1220.21 48.8975C1220 49.0996 1219.91 49.3545 1219.91 49.6621C1219.91 49.9785 1220 50.2334 1220.21 50.4355C1220.42 50.6465 1220.67 50.7432 1220.99 50.7432C1221.29 50.7432 1221.55 50.6465 1221.76 50.4355C1221.96 50.2334 1222.07 49.9785 1222.07 49.6621ZM1224.77 49.6621C1224.77 49.3545 1224.66 49.0996 1224.46 48.8975C1224.25 48.6865 1223.99 48.5898 1223.68 48.5898C1223.37 48.5898 1223.11 48.6865 1222.91 48.8975C1222.7 49.0996 1222.6 49.3545 1222.6 49.6621C1222.6 49.9785 1222.7 50.2334 1222.91 50.4355C1223.11 50.6465 1223.37 50.7432 1223.68 50.7432C1223.99 50.7432 1224.25 50.6465 1224.46 50.4355C1224.66 50.2334 1224.77 49.9785 1224.77 49.6621ZM1228.54 49.6621C1228.54 49.3545 1228.44 49.0996 1228.24 48.8975C1228.03 48.6865 1227.77 48.5898 1227.46 48.5898C1227.15 48.5898 1226.89 48.6865 1226.69 48.8975C1226.48 49.0996 1226.38 49.3545 1226.38 49.6621C1226.38 49.9785 1226.48 50.2334 1226.69 50.4355C1226.89 50.6465 1227.15 50.7432 1227.46 50.7432C1227.77 50.7432 1228.03 50.6465 1228.24 50.4355C1228.44 50.2334 1228.54 49.9785 1228.54 49.6621ZM1226.47 52.3604H1224.68V61H1226.47V52.3604Z" fill="white"/>
<path d="M1067.25 52.3604H1065.09L1061.39 56.2275V52.3604H1059.59V61H1061.39V58.5742L1062.75 57.1328L1065.53 61H1067.51L1063.92 55.9639L1067.25 52.3604ZM1075.24 56.6846C1075.24 57.4932 1074.96 58.1699 1074.44 58.7236C1073.9 59.2861 1073.27 59.5586 1072.54 59.5586C1071.8 59.5586 1071.17 59.2861 1070.63 58.7236C1070.1 58.1699 1069.83 57.4932 1069.83 56.6846C1069.83 55.876 1070.1 55.1992 1070.63 54.6367C1071.17 54.083 1071.8 53.8018 1072.54 53.8018C1073.27 53.8018 1073.9 54.083 1074.44 54.6367C1074.96 55.1992 1075.24 55.876 1075.24 56.6846ZM1068.04 56.6846C1068.04 57.8975 1068.48 58.9434 1069.38 59.8398C1070.27 60.7363 1071.33 61.1846 1072.54 61.1846C1073.75 61.1846 1074.8 60.7363 1075.69 59.8398C1076.59 58.9434 1077.04 57.8975 1077.04 56.6846C1077.04 55.4717 1076.59 54.417 1075.69 53.5205C1074.8 52.624 1073.75 52.1758 1072.54 52.1758C1071.33 52.1758 1070.27 52.624 1069.38 53.5205C1068.48 54.417 1068.04 55.4717 1068.04 56.6846ZM1083.6 56.1396L1080.46 52.3604H1079.02V61H1080.82V55.3311L1083.6 58.6621L1086.4 55.3311V61H1088.2V52.3604H1086.76L1083.6 56.1396ZM1097.66 61V55.4189C1097.66 54.5049 1097.32 53.7402 1096.65 53.1162C1095.97 52.4922 1095.11 52.1758 1094.05 52.1758C1093.63 52.1758 1093.22 52.2373 1092.82 52.3516C1092.43 52.4658 1092.11 52.5977 1091.88 52.7383C1091.63 52.8877 1091.4 53.0547 1091.19 53.2393C1090.98 53.4238 1090.84 53.5557 1090.78 53.626C1090.71 53.6963 1090.67 53.7578 1090.64 53.8018L1091.8 54.9707L1092.04 54.6631C1092.18 54.4697 1092.44 54.2852 1092.81 54.0918C1093.18 53.8984 1093.6 53.8018 1094.05 53.8018C1094.58 53.8018 1095.01 53.96 1095.35 54.2676C1095.68 54.584 1095.86 54.9619 1095.86 55.4189L1092.7 55.9639C1091.92 56.0957 1091.3 56.4033 1090.86 56.8779C1090.41 57.3613 1090.19 57.959 1090.19 58.6709C1090.19 59.3213 1090.48 59.9102 1091.06 60.4199C1091.64 60.9297 1092.37 61.1846 1093.25 61.1846C1093.54 61.1846 1093.83 61.1406 1094.13 61.0703C1094.42 60.9912 1094.67 60.9033 1094.86 60.8066C1095.06 60.71 1095.23 60.6045 1095.4 60.4814C1095.57 60.3584 1095.68 60.2793 1095.73 60.2266C1095.79 60.1738 1095.83 60.1299 1095.86 60.1123V61.0088L1097.66 61ZM1093.52 59.5674C1093.04 59.5674 1092.67 59.4531 1092.39 59.2422C1092.11 59.0225 1091.98 58.7676 1091.98 58.4775C1091.98 58.1699 1092.08 57.915 1092.28 57.7129C1092.47 57.502 1092.74 57.3701 1093.06 57.3174L1095.86 56.8691V57.0449C1095.86 57.8535 1095.65 58.4688 1095.23 58.9082C1094.82 59.3477 1094.25 59.5674 1093.52 59.5674ZM1101.98 57.3965H1106.21V61H1108.01V52.3604H1106.21V55.7793H1101.98V52.3604H1100.18V61H1101.98V57.3965ZM1109.28 59.3828V63.1621H1111.08V61H1117.11V63.1621H1118.9V59.3828H1117.64V52.3604H1111.34V54.8828C1111.34 55.4629 1111.29 56.0078 1111.18 56.5264C1111.08 57.0537 1110.96 57.4756 1110.84 57.792C1110.72 58.1084 1110.57 58.4072 1110.4 58.6797C1110.24 58.9609 1110.12 59.1367 1110.05 59.2158C1109.98 59.2949 1109.94 59.3477 1109.9 59.3828H1109.28ZM1113.14 53.9775H1115.84V59.3828H1111.7L1111.85 59.1982C1111.94 59.0928 1112.06 58.917 1112.2 58.6709C1112.34 58.4248 1112.49 58.1348 1112.63 57.8008C1112.78 57.4668 1112.9 57.0361 1113 56.5176C1113.09 56.0078 1113.14 55.4629 1113.14 54.8828L1113.14 53.9775ZM1127.65 61V55.4189C1127.65 54.5049 1127.3 53.7402 1126.64 53.1162C1125.96 52.4922 1125.1 52.1758 1124.04 52.1758C1123.62 52.1758 1123.21 52.2373 1122.81 52.3516C1122.42 52.4658 1122.1 52.5977 1121.86 52.7383C1121.62 52.8877 1121.39 53.0547 1121.18 53.2393C1120.97 53.4238 1120.83 53.5557 1120.76 53.626C1120.7 53.6963 1120.66 53.7578 1120.62 53.8018L1121.79 54.9707L1122.03 54.6631C1122.17 54.4697 1122.43 54.2852 1122.79 54.0918C1123.16 53.8984 1123.59 53.8018 1124.04 53.8018C1124.57 53.8018 1125 53.96 1125.33 54.2676C1125.67 54.584 1125.84 54.9619 1125.84 55.4189L1122.69 55.9639C1121.91 56.0957 1121.29 56.4033 1120.84 56.8779C1120.4 57.3613 1120.18 57.959 1120.18 58.6709C1120.18 59.3213 1120.47 59.9102 1121.05 60.4199C1121.63 60.9297 1122.36 61.1846 1123.23 61.1846C1123.53 61.1846 1123.82 61.1406 1124.12 61.0703C1124.41 60.9912 1124.66 60.9033 1124.85 60.8066C1125.04 60.71 1125.22 60.6045 1125.39 60.4814C1125.55 60.3584 1125.67 60.2793 1125.72 60.2266C1125.77 60.1738 1125.82 60.1299 1125.84 60.1123V61.0088L1127.65 61ZM1123.51 59.5674C1123.03 59.5674 1122.66 59.4531 1122.38 59.2422C1122.1 59.0225 1121.97 58.7676 1121.97 58.4775C1121.97 58.1699 1122.07 57.915 1122.27 57.7129C1122.46 57.502 1122.72 57.3701 1123.05 57.3174L1125.84 56.8691V57.0449C1125.84 57.8535 1125.63 58.4688 1125.22 58.9082C1124.81 59.3477 1124.24 59.5674 1123.51 59.5674Z" fill="white"/>
<path d="M978.559 53.9775H982.786V61H984.588V52.3604H976.757V61H978.559V53.9775ZM993.772 56.6846C993.772 57.4932 993.5 58.1699 992.973 58.7236C992.437 59.2861 991.804 59.5586 991.074 59.5586C990.336 59.5586 989.703 59.2861 989.167 58.7236C988.631 58.1699 988.367 57.4932 988.367 56.6846C988.367 55.876 988.631 55.1992 989.167 54.6367C989.703 54.083 990.336 53.8018 991.074 53.8018C991.804 53.8018 992.437 54.083 992.973 54.6367C993.5 55.1992 993.772 55.876 993.772 56.6846ZM986.574 56.6846C986.574 57.8975 987.014 58.9434 987.91 59.8398C988.807 60.7363 989.861 61.1846 991.074 61.1846C992.287 61.1846 993.333 60.7363 994.229 59.8398C995.126 58.9434 995.574 57.8975 995.574 56.6846C995.574 55.4717 995.126 54.417 994.229 53.5205C993.333 52.624 992.287 52.1758 991.074 52.1758C989.861 52.1758 988.807 52.624 987.91 53.5205C987.014 54.417 986.574 55.4717 986.574 56.6846ZM997.016 56.6846C997.016 57.8975 997.455 58.9434 998.352 59.8398C999.248 60.7363 1000.3 61.1846 1001.52 61.1846C1001.93 61.1846 1002.34 61.1143 1002.75 60.9824C1003.16 60.8506 1003.49 60.71 1003.76 60.5518C1004.01 60.3936 1004.26 60.2178 1004.5 60.0156C1004.72 59.8135 1004.88 59.6729 1004.95 59.585C1005.02 59.4971 1005.08 59.4355 1005.11 59.3916L1003.94 58.2227L1003.67 58.5566C1003.49 58.7676 1003.2 58.9961 1002.8 59.2246C1002.39 59.4531 1001.97 59.5674 1001.52 59.5674C1000.78 59.5674 1000.14 59.2861 999.608 58.7324C999.072 58.1699 998.809 57.4932 998.809 56.6846C998.809 55.876 999.072 55.1992 999.608 54.6455C1000.14 54.083 1000.78 53.8105 1001.52 53.8105C1001.97 53.8105 1002.39 53.9248 1002.8 54.1621C1003.2 54.3906 1003.46 54.5752 1003.58 54.7158C1003.7 54.8564 1003.79 54.9707 1003.85 55.0674L1005.02 53.8984L1004.64 53.4854C1004.39 53.1953 1003.98 52.9053 1003.4 52.6152C1002.82 52.3252 1002.18 52.1846 1001.52 52.1846C1000.3 52.1846 999.248 52.6328 998.352 53.5293C997.455 54.4258 997.016 55.4717 997.016 56.6846ZM1007.9 52.3604V54.8828C1007.9 56.1221 1007.82 57.0801 1007.68 57.7656C1007.54 58.4512 1007.35 58.8906 1007.14 59.0928C1006.93 59.2861 1006.64 59.3916 1006.27 59.3916C1006.09 59.3828 1005.88 59.3477 1005.65 59.2949V61.0088L1005.8 61.0439C1005.9 61.0791 1006.04 61.1055 1006.22 61.1406C1006.39 61.167 1006.57 61.1846 1006.73 61.1846C1007.37 61.1846 1007.9 61.0176 1008.3 60.7012C1008.71 60.376 1009.04 59.7344 1009.3 58.7852C1009.57 57.8359 1009.69 56.5352 1009.69 54.8916V53.9863H1012.75V61.0088H1014.55V52.3691L1007.9 52.3604ZM1019.16 61.8965C1018.82 62.7402 1018.31 63.1621 1017.63 63.1621C1017.32 63.1621 1017.02 63.1006 1016.72 62.9775V64.6035L1016.84 64.6387C1016.94 64.6738 1017.1 64.709 1017.31 64.7354C1017.52 64.7705 1017.74 64.7793 1017.99 64.7793C1018.64 64.7793 1019.18 64.5684 1019.62 64.1377C1020.06 63.7158 1020.5 62.9688 1020.95 61.8965L1024.82 52.3604H1022.93L1020.41 58.6621L1017.89 52.3604H1016L1019.52 61L1019.16 61.8965ZM1032.29 52.3604H1026.26V61H1028.06V53.9775H1032.29V52.3604ZM1040.03 52.3604L1035.53 58.0293V52.3604H1033.73V61H1035.34L1039.84 55.3311V61H1041.65V52.3604H1040.03Z" fill="white"/>
<path d="M924.624 56.6846C924.624 57.4932 924.352 58.1699 923.824 58.7236C923.288 59.2861 922.655 59.5586 921.926 59.5586C921.188 59.5586 920.555 59.2861 920.019 58.7236C919.482 58.1699 919.219 57.4932 919.219 56.6846C919.219 55.876 919.482 55.1992 920.019 54.6367C920.555 54.083 921.188 53.8018 921.926 53.8018C922.655 53.8018 923.288 54.083 923.824 54.6367C924.352 55.1992 924.624 55.876 924.624 56.6846ZM917.426 56.6846C917.426 57.8975 917.865 58.9434 918.762 59.8398C919.658 60.7363 920.713 61.1846 921.926 61.1846C923.139 61.1846 924.185 60.7363 925.081 59.8398C925.978 58.9434 926.426 57.8975 926.426 56.6846C926.426 55.4717 925.978 54.417 925.081 53.5205C924.185 52.624 923.139 52.1758 921.926 52.1758C920.713 52.1758 919.658 52.624 918.762 53.5205C917.865 54.417 917.426 55.4717 917.426 56.6846ZM933.809 57.3965H938.036V61H939.838V52.3604H938.036V55.7793H933.809V52.3604H932.007V61H933.809V57.3965ZM949.295 61V55.4189C949.295 54.5049 948.952 53.7402 948.284 53.1162C947.607 52.4922 946.746 52.1758 945.691 52.1758C945.27 52.1758 944.856 52.2373 944.461 52.3516C944.065 52.4658 943.749 52.5977 943.512 52.7383C943.266 52.8877 943.037 53.0547 942.826 53.2393C942.615 53.4238 942.475 53.5557 942.413 53.626C942.352 53.6963 942.308 53.7578 942.272 53.8018L943.441 54.9707L943.679 54.6631C943.819 54.4697 944.074 54.2852 944.443 54.0918C944.812 53.8984 945.234 53.8018 945.691 53.8018C946.219 53.8018 946.649 53.96 946.983 54.2676C947.317 54.584 947.493 54.9619 947.493 55.4189L944.338 55.9639C943.556 56.0957 942.94 56.4033 942.492 56.8779C942.044 57.3613 941.824 57.959 941.824 58.6709C941.824 59.3213 942.114 59.9102 942.694 60.4199C943.274 60.9297 944.004 61.1846 944.883 61.1846C945.182 61.1846 945.472 61.1406 945.771 61.0703C946.061 60.9912 946.307 60.9033 946.5 60.8066C946.693 60.71 946.869 60.6045 947.036 60.4814C947.203 60.3584 947.317 60.2793 947.37 60.2266C947.423 60.1738 947.467 60.1299 947.493 60.1123V61.0088L949.295 61ZM945.155 59.5674C944.681 59.5674 944.312 59.4531 944.03 59.2422C943.749 59.0225 943.617 58.7676 943.617 58.4775C943.617 58.1699 943.714 57.915 943.916 57.7129C944.109 57.502 944.373 57.3701 944.698 57.3174L947.493 56.8691V57.0449C947.493 57.8535 947.282 58.4688 946.869 58.9082C946.456 59.3477 945.885 59.5674 945.155 59.5674ZM951.281 56.6846C951.281 57.8975 951.721 58.9434 952.617 59.8398C953.514 60.7363 954.568 61.1846 955.781 61.1846C956.194 61.1846 956.607 61.1143 957.021 60.9824C957.425 60.8506 957.759 60.71 958.022 60.5518C958.277 60.3936 958.523 60.2178 958.761 60.0156C958.989 59.8135 959.147 59.6729 959.218 59.585C959.288 59.4971 959.341 59.4355 959.376 59.3916L958.207 58.2227L957.935 58.5566C957.759 58.7676 957.469 58.9961 957.064 59.2246C956.66 59.4531 956.238 59.5674 955.781 59.5674C955.043 59.5674 954.41 59.2861 953.874 58.7324C953.338 58.1699 953.074 57.4932 953.074 56.6846C953.074 55.876 953.338 55.1992 953.874 54.6455C954.41 54.083 955.043 53.8105 955.781 53.8105C956.238 53.8105 956.66 53.9248 957.064 54.1621C957.469 54.3906 957.724 54.5752 957.847 54.7158C957.97 54.8564 958.058 54.9707 958.119 55.0674L959.288 53.8984L958.91 53.4854C958.655 53.1953 958.242 52.9053 957.662 52.6152C957.082 52.3252 956.449 52.1846 955.781 52.1846C954.568 52.1846 953.514 52.6328 952.617 53.5293C951.721 54.4258 951.281 55.4717 951.281 56.6846Z" fill="white"/>
<path d="M1117.02 20.0391V17.3203H1119.75V15.3203H1117.02V12.6016H1115.19V15.3203H1112.47V17.3203H1115.19V20.0391H1117.02ZM1127.52 15.0781L1127.67 15C1127.79 14.9531 1127.92 14.8672 1128.08 14.7422C1128.23 14.6172 1128.38 14.4688 1128.54 14.2891C1128.7 14.1172 1128.83 13.8828 1128.94 13.6016C1129.05 13.3203 1129.11 13.0078 1129.11 12.6797C1129.11 11.7969 1128.77 11.0547 1128.08 10.4609C1127.39 9.86719 1126.48 9.5625 1125.35 9.5625C1124.86 9.5625 1124.39 9.625 1123.95 9.75C1123.49 9.875 1123.13 10.0078 1122.86 10.1484C1122.59 10.2891 1122.34 10.4609 1122.1 10.6562C1121.87 10.8594 1121.72 10.9922 1121.66 11.0703C1121.59 11.1484 1121.55 11.2031 1121.52 11.2422L1122.95 12.6797L1123.2 12.4219C1123.35 12.2578 1123.6 12.0859 1123.96 11.9062C1124.32 11.7344 1124.7 11.6406 1125.11 11.6406C1125.58 11.6406 1125.95 11.7656 1126.23 12C1126.49 12.2422 1126.63 12.5469 1126.63 12.9219C1126.63 13.3281 1126.49 13.6562 1126.22 13.9062C1125.95 14.1562 1125.58 14.2812 1125.11 14.2812H1123.99V16.2812H1125.2C1125.77 16.2812 1126.21 16.4219 1126.54 16.6875C1126.87 16.9609 1127.03 17.3047 1127.03 17.7188C1127.03 18.1406 1126.86 18.4844 1126.53 18.75C1126.2 19.0234 1125.73 19.1562 1125.11 19.1562C1124.8 19.1562 1124.5 19.1172 1124.21 19.0312C1123.92 18.9531 1123.69 18.8594 1123.5 18.75C1123.31 18.6406 1123.14 18.5234 1122.98 18.3828C1122.8 18.2422 1122.7 18.1484 1122.66 18.0938C1122.61 18.0391 1122.57 17.9922 1122.55 17.9609L1121.11 19.4766L1121.27 19.6562C1121.38 19.7891 1121.55 19.9375 1121.78 20.1094C1122.02 20.2812 1122.29 20.4453 1122.6 20.6172C1122.91 20.7891 1123.32 20.9375 1123.81 21.0625C1124.3 21.1875 1124.82 21.2422 1125.35 21.2422C1126.6 21.2422 1127.6 20.9141 1128.37 20.25C1129.13 19.5938 1129.52 18.8047 1129.52 17.8828C1129.52 17.4766 1129.44 17.1094 1129.3 16.7656C1129.15 16.4219 1128.98 16.1562 1128.81 15.9609C1128.64 15.7734 1128.44 15.6016 1128.21 15.4531C1127.98 15.3047 1127.82 15.2109 1127.73 15.1719C1127.63 15.1328 1127.56 15.1016 1127.52 15.0781ZM1135.91 19.2422C1135.41 19.2422 1134.98 19.0859 1134.62 18.7578C1134.26 18.4297 1134.08 18.0625 1134.08 17.6406C1134.08 17.2266 1134.26 16.8594 1134.62 16.5312C1134.98 16.2031 1135.41 16.0391 1135.91 16.0391C1136.41 16.0391 1136.85 16.2031 1137.21 16.5312C1137.57 16.8594 1137.75 17.2266 1137.75 17.6406C1137.75 18.0625 1137.57 18.4297 1137.21 18.7578C1136.85 19.0859 1136.41 19.2422 1135.91 19.2422ZM1135.92 14.1172C1135.49 14.1172 1135.14 14 1134.88 13.75C1134.61 13.5078 1134.48 13.2031 1134.48 12.8438C1134.48 12.4844 1134.61 12.1797 1134.88 11.9375C1135.14 11.6875 1135.49 11.5703 1135.92 11.5703C1136.34 11.5703 1136.7 11.6875 1136.96 11.9375C1137.23 12.1797 1137.36 12.4844 1137.36 12.8438C1137.36 13.2031 1137.23 13.5078 1136.96 13.75C1136.7 14 1136.34 14.1172 1135.92 14.1172ZM1135.91 21.2422C1137.09 21.2422 1138.06 20.8906 1138.84 20.1797C1139.61 19.4688 1140 18.625 1140 17.6406C1140 17.2969 1139.94 16.9688 1139.81 16.6562C1139.69 16.3438 1139.55 16.0938 1139.41 15.8906C1139.27 15.6953 1139.09 15.5156 1138.9 15.3516C1138.7 15.1797 1138.57 15.0781 1138.49 15.0312C1138.41 14.9844 1138.36 14.9453 1138.31 14.9297L1138.63 14.7031C1138.85 14.5469 1139.06 14.2891 1139.27 13.9141C1139.49 13.5391 1139.59 13.1328 1139.59 12.6875C1139.59 11.8516 1139.24 11.125 1138.54 10.5C1137.84 9.875 1136.96 9.5625 1135.91 9.5625C1134.87 9.5625 1133.99 9.875 1133.29 10.5C1132.59 11.125 1132.23 11.8516 1132.23 12.6875C1132.23 12.9688 1132.28 13.2422 1132.37 13.5C1132.46 13.7578 1132.56 13.9688 1132.67 14.125C1132.78 14.2812 1132.91 14.4297 1133.06 14.5703C1133.22 14.7109 1133.32 14.7969 1133.38 14.8359C1133.44 14.875 1133.48 14.9062 1133.51 14.9297L1133.34 15.0234C1133.22 15.0938 1133.08 15.2031 1132.91 15.3516C1132.75 15.5078 1132.59 15.6797 1132.42 15.8828C1132.27 16.0859 1132.12 16.3438 1132.01 16.6562C1131.89 16.9688 1131.83 17.2969 1131.83 17.6406C1131.83 18.625 1132.22 19.4688 1132.99 20.1797C1133.77 20.8906 1134.74 21.2422 1135.91 21.2422ZM1147.69 17C1147.69 16.2891 1147.76 15.5703 1147.91 14.8359C1148.07 14.1016 1148.24 13.4922 1148.44 13.0078C1148.62 12.5234 1148.84 12.0547 1149.09 11.5938C1149.34 11.1406 1149.51 10.8359 1149.61 10.6875C1149.71 10.5469 1149.79 10.4375 1149.84 10.3594L1148.16 9.32031L1147.89 9.67188C1147.71 9.89844 1147.49 10.2422 1147.23 10.7031C1146.96 11.1719 1146.7 11.6953 1146.45 12.2812C1146.2 12.8672 1145.98 13.5859 1145.79 14.4297C1145.61 15.2812 1145.52 16.1406 1145.52 17C1145.52 17.8672 1145.62 18.7266 1145.8 19.5859C1146 20.4453 1146.21 21.1562 1146.44 21.7109C1146.67 22.2656 1146.94 22.7969 1147.24 23.3125C1147.55 23.8281 1147.76 24.1641 1147.88 24.3203C1147.99 24.4766 1148.09 24.6016 1148.16 24.6797L1149.84 23.7188L1149.62 23.3984C1149.47 23.1875 1149.29 22.8672 1149.08 22.4453C1148.88 22.0234 1148.66 21.5547 1148.45 21.0312C1148.23 20.5156 1148.05 19.8906 1147.91 19.1641C1147.76 18.4375 1147.69 17.7188 1147.69 17ZM1153.05 15.3984C1153.05 14.2266 1153.28 13.3203 1153.76 12.6797C1154.23 12.0391 1154.8 11.7188 1155.45 11.7188C1156.1 11.7188 1156.66 12.0391 1157.14 12.6797C1157.61 13.3203 1157.85 14.2266 1157.85 15.3984C1157.85 16.5703 1157.61 17.4766 1157.14 18.1172C1156.66 18.7578 1156.1 19.0781 1155.45 19.0781C1154.8 19.0781 1154.23 18.7578 1153.76 18.1172C1153.28 17.4766 1153.05 16.5703 1153.05 15.3984ZM1160.25 15.3984C1160.25 13.6484 1159.78 12.2422 1158.85 11.1719C1157.91 10.1016 1156.78 9.5625 1155.45 9.5625C1154.12 9.5625 1152.98 10.1016 1152.05 11.1719C1151.11 12.2422 1150.64 13.6484 1150.64 15.3984C1150.64 17.1484 1151.11 18.5625 1152.05 19.6328C1152.98 20.7109 1154.12 21.2422 1155.45 21.2422C1156.78 21.2422 1157.91 20.7109 1158.85 19.6328C1159.78 18.5625 1160.25 17.1484 1160.25 15.3984ZM1166.34 13.5625C1165.59 13.5625 1165 13.6953 1164.58 13.9609L1164.73 11.8828H1169.38V9.79688H1162.58L1162.18 16.2031L1163.86 16.3594L1164.03 16.1328C1164.15 15.9922 1164.36 15.8438 1164.66 15.6953C1164.96 15.5547 1165.3 15.4766 1165.7 15.4766C1166.25 15.4766 1166.71 15.6562 1167.07 16.0078C1167.43 16.3672 1167.61 16.8047 1167.61 17.3203C1167.61 17.8438 1167.45 18.2656 1167.1 18.5938C1166.76 18.9219 1166.29 19.0781 1165.69 19.0781C1165.22 19.0781 1164.77 18.9766 1164.31 18.7656C1163.87 18.5625 1163.58 18.3984 1163.44 18.2734C1163.3 18.1484 1163.2 18.0469 1163.13 17.9609L1161.7 19.4766L1161.84 19.6562C1161.95 19.7891 1162.11 19.9375 1162.34 20.1094C1162.57 20.2812 1162.84 20.4453 1163.14 20.6172C1163.45 20.7891 1163.84 20.9375 1164.33 21.0625C1164.81 21.1875 1165.32 21.2422 1165.85 21.2422C1167.12 21.2422 1168.14 20.875 1168.92 20.1328C1169.7 19.3906 1170.09 18.4531 1170.09 17.3203C1170.09 16.2422 1169.73 15.3516 1169.02 14.6328C1168.3 13.9219 1167.41 13.5625 1166.34 13.5625ZM1173.86 15.3984C1173.86 14.2266 1174.09 13.3203 1174.57 12.6797C1175.05 12.0391 1175.61 11.7188 1176.27 11.7188C1176.91 11.7188 1177.48 12.0391 1177.95 12.6797C1178.42 13.3203 1178.66 14.2266 1178.66 15.3984C1178.66 16.5703 1178.42 17.4766 1177.95 18.1172C1177.48 18.7578 1176.91 19.0781 1176.27 19.0781C1175.61 19.0781 1175.05 18.7578 1174.57 18.1172C1174.09 17.4766 1173.86 16.5703 1173.86 15.3984ZM1181.06 15.3984C1181.06 13.6484 1180.59 12.2422 1179.66 11.1719C1178.73 10.1016 1177.59 9.5625 1176.27 9.5625C1174.93 9.5625 1173.8 10.1016 1172.86 11.1719C1171.92 12.2422 1171.45 13.6484 1171.45 15.3984C1171.45 17.1484 1171.92 18.5625 1172.86 19.6328C1173.8 20.7109 1174.93 21.2422 1176.27 21.2422C1177.59 21.2422 1178.73 20.7109 1179.66 19.6328C1180.59 18.5625 1181.06 17.1484 1181.06 15.3984ZM1184.03 17C1184.03 17.7188 1183.95 18.4453 1183.8 19.1797C1183.64 19.9141 1183.46 20.5312 1183.27 21.0234C1183.09 21.5234 1182.87 22.0078 1182.62 22.4766C1182.37 22.9453 1182.2 23.2578 1182.09 23.3984C1181.99 23.5391 1181.91 23.6484 1181.87 23.7188L1183.55 24.6797L1183.82 24.3281C1184 24.1094 1184.22 23.7656 1184.48 23.2969C1184.73 22.8359 1184.98 22.3125 1185.25 21.7266C1185.52 21.1406 1185.73 20.4219 1185.91 19.5703C1186.09 18.7266 1186.19 17.8672 1186.19 17C1186.19 16.1406 1186.09 15.2734 1185.9 14.4141C1185.7 13.5547 1185.49 12.8516 1185.27 12.2969C1185.03 11.7422 1184.77 11.2031 1184.47 10.6875C1184.16 10.1719 1183.95 9.83594 1183.84 9.67969C1183.71 9.52344 1183.62 9.40625 1183.55 9.32031L1181.87 10.3594L1182.09 10.6641C1182.24 10.8828 1182.42 11.1953 1182.62 11.6016C1182.83 12.0156 1183.04 12.4766 1183.26 12.9922C1183.47 13.5078 1183.65 14.1328 1183.8 14.8516C1183.95 15.5703 1184.03 16.2891 1184.03 17ZM1197.8 15.0781L1197.95 15C1198.07 14.9531 1198.2 14.8672 1198.36 14.7422C1198.52 14.6172 1198.66 14.4688 1198.82 14.2891C1198.98 14.1172 1199.11 13.8828 1199.22 13.6016C1199.33 13.3203 1199.39 13.0078 1199.39 12.6797C1199.39 11.7969 1199.05 11.0547 1198.36 10.4609C1197.67 9.86719 1196.76 9.5625 1195.63 9.5625C1195.14 9.5625 1194.67 9.625 1194.23 9.75C1193.77 9.875 1193.41 10.0078 1193.14 10.1484C1192.87 10.2891 1192.62 10.4609 1192.38 10.6562C1192.15 10.8594 1192 10.9922 1191.94 11.0703C1191.88 11.1484 1191.83 11.2031 1191.8 11.2422L1193.23 12.6797L1193.48 12.4219C1193.63 12.2578 1193.88 12.0859 1194.24 11.9062C1194.6 11.7344 1194.98 11.6406 1195.39 11.6406C1195.86 11.6406 1196.23 11.7656 1196.51 12C1196.77 12.2422 1196.91 12.5469 1196.91 12.9219C1196.91 13.3281 1196.77 13.6562 1196.5 13.9062C1196.23 14.1562 1195.86 14.2812 1195.39 14.2812H1194.27V16.2812H1195.48C1196.05 16.2812 1196.49 16.4219 1196.82 16.6875C1197.15 16.9609 1197.31 17.3047 1197.31 17.7188C1197.31 18.1406 1197.14 18.4844 1196.81 18.75C1196.48 19.0234 1196.01 19.1562 1195.39 19.1562C1195.08 19.1562 1194.78 19.1172 1194.49 19.0312C1194.2 18.9531 1193.97 18.8594 1193.78 18.75C1193.59 18.6406 1193.42 18.5234 1193.26 18.3828C1193.09 18.2422 1192.98 18.1484 1192.94 18.0938C1192.89 18.0391 1192.85 17.9922 1192.84 17.9609L1191.39 19.4766L1191.55 19.6562C1191.66 19.7891 1191.83 19.9375 1192.06 20.1094C1192.3 20.2812 1192.57 20.4453 1192.88 20.6172C1193.2 20.7891 1193.6 20.9375 1194.09 21.0625C1194.59 21.1875 1195.1 21.2422 1195.63 21.2422C1196.88 21.2422 1197.88 20.9141 1198.65 20.25C1199.41 19.5938 1199.8 18.8047 1199.8 17.8828C1199.8 17.4766 1199.72 17.1094 1199.58 16.7656C1199.43 16.4219 1199.27 16.1562 1199.09 15.9609C1198.92 15.7734 1198.72 15.6016 1198.49 15.4531C1198.26 15.3047 1198.1 15.2109 1198.01 15.1719C1197.91 15.1328 1197.84 15.1016 1197.8 15.0781ZM1205.8 17.3984C1205.98 17.3984 1206.14 17.375 1206.28 17.3203L1203.88 21H1206.36L1209.48 16.2031L1209.72 15.8516C1209.88 15.6328 1210.04 15.2891 1210.2 14.8359C1210.35 14.3828 1210.44 13.9297 1210.44 13.4844C1210.44 12.3828 1210.03 11.4531 1209.23 10.6953C1208.44 9.94531 1207.42 9.5625 1206.2 9.5625C1204.97 9.5625 1203.95 9.94531 1203.16 10.6953C1202.36 11.4531 1201.96 12.3828 1201.96 13.4844C1201.96 14.5156 1202.34 15.4297 1203.12 16.2188C1203.9 17.0078 1204.79 17.3984 1205.8 17.3984ZM1204.28 13.4844C1204.28 12.9609 1204.46 12.5234 1204.82 12.1719C1205.18 11.8203 1205.64 11.6484 1206.2 11.6484C1206.75 11.6484 1207.21 11.8203 1207.57 12.1719C1207.93 12.5234 1208.12 12.9609 1208.12 13.4844C1208.12 14.0078 1207.93 14.4453 1207.57 14.7969C1207.21 15.1484 1206.75 15.3281 1206.2 15.3281C1205.64 15.3281 1205.18 15.1484 1204.82 14.7969C1204.46 14.4453 1204.28 14.0078 1204.28 13.4844ZM1214.2 15.3984C1214.2 14.2266 1214.44 13.3203 1214.91 12.6797C1215.39 12.0391 1215.95 11.7188 1216.61 11.7188C1217.26 11.7188 1217.82 12.0391 1218.3 12.6797C1218.77 13.3203 1219.01 14.2266 1219.01 15.3984C1219.01 16.5703 1218.77 17.4766 1218.3 18.1172C1217.82 18.7578 1217.26 19.0781 1216.61 19.0781C1215.95 19.0781 1215.39 18.7578 1214.91 18.1172C1214.44 17.4766 1214.2 16.5703 1214.2 15.3984ZM1221.41 15.3984C1221.41 13.6484 1220.94 12.2422 1220.01 11.1719C1219.07 10.1016 1217.94 9.5625 1216.61 9.5625C1215.27 9.5625 1214.14 10.1016 1213.2 11.1719C1212.27 12.2422 1211.8 13.6484 1211.8 15.3984C1211.8 17.1484 1212.27 18.5625 1213.2 19.6328C1214.14 20.7109 1215.27 21.2422 1216.61 21.2422C1217.94 21.2422 1219.07 20.7109 1220.01 19.6328C1220.94 18.5625 1221.41 17.1484 1221.41 15.3984ZM1229.98 9.79688L1229.91 9.92969C1229.86 10.0234 1229.78 10.1406 1229.67 10.2734C1229.56 10.4062 1229.42 10.5391 1229.27 10.6797C1229.11 10.8203 1228.88 10.9531 1228.6 11.0781C1228.31 11.2031 1228 11.2812 1227.66 11.3203V12.8438H1229.57V21H1231.98V9.79688H1229.98ZM1241.18 13.5625C1240.43 13.5625 1239.84 13.6953 1239.42 13.9609L1239.58 11.8828H1244.22V9.79688H1237.42L1237.02 16.2031L1238.7 16.3594L1238.88 16.1328C1238.99 15.9922 1239.2 15.8438 1239.51 15.6953C1239.8 15.5547 1240.15 15.4766 1240.54 15.4766C1241.09 15.4766 1241.55 15.6562 1241.91 16.0078C1242.27 16.3672 1242.45 16.8047 1242.45 17.3203C1242.45 17.8438 1242.29 18.2656 1241.95 18.5938C1241.6 18.9219 1241.13 19.0781 1240.53 19.0781C1240.06 19.0781 1239.61 18.9766 1239.16 18.7656C1238.71 18.5625 1238.42 18.3984 1238.28 18.2734C1238.15 18.1484 1238.05 18.0469 1237.98 17.9609L1236.54 19.4766L1236.69 19.6562C1236.79 19.7891 1236.95 19.9375 1237.18 20.1094C1237.41 20.2812 1237.68 20.4453 1237.98 20.6172C1238.29 20.7891 1238.69 20.9375 1239.17 21.0625C1239.66 21.1875 1240.16 21.2422 1240.7 21.2422C1241.96 21.2422 1242.98 20.875 1243.77 20.1328C1244.55 19.3906 1244.93 18.4531 1244.93 17.3203C1244.93 16.2422 1244.58 15.3516 1243.86 14.6328C1243.15 13.9219 1242.26 13.5625 1241.18 13.5625ZM1253.98 17.3984C1254.16 17.3984 1254.33 17.375 1254.47 17.3203L1252.07 21H1254.55L1257.66 16.2031L1257.91 15.8516C1258.06 15.6328 1258.23 15.2891 1258.38 14.8359C1258.54 14.3828 1258.62 13.9297 1258.62 13.4844C1258.62 12.3828 1258.22 11.4531 1257.42 10.6953C1256.62 9.94531 1255.61 9.5625 1254.38 9.5625C1253.16 9.5625 1252.14 9.94531 1251.34 10.6953C1250.55 11.4531 1250.15 12.3828 1250.15 13.4844C1250.15 14.5156 1250.53 15.4297 1251.31 16.2188C1252.09 17.0078 1252.98 17.3984 1253.98 17.3984ZM1252.47 13.4844C1252.47 12.9609 1252.65 12.5234 1253.01 12.1719C1253.37 11.8203 1253.83 11.6484 1254.38 11.6484C1254.94 11.6484 1255.4 11.8203 1255.76 12.1719C1256.12 12.5234 1256.3 12.9609 1256.3 13.4844C1256.3 14.0078 1256.12 14.4453 1255.76 14.7969C1255.4 15.1484 1254.94 15.3281 1254.38 15.3281C1253.83 15.3281 1253.37 15.1484 1253.01 14.7969C1252.65 14.4453 1252.47 14.0078 1252.47 13.4844ZM1264.48 9.79688L1264.41 9.92969C1264.36 10.0234 1264.28 10.1406 1264.17 10.2734C1264.06 10.4062 1263.92 10.5391 1263.77 10.6797C1263.61 10.8203 1263.38 10.9531 1263.1 11.0781C1262.81 11.2031 1262.5 11.2812 1262.16 11.3203V12.8438H1264.07V21H1266.48V9.79688H1264.48Z" fill="white"/>
<path d="M882.578 15.3984C882.578 14.0859 883.016 12.9844 883.898 12.0938C884.773 11.2031 885.859 10.7578 887.141 10.7578C888.422 10.7578 889.5 11.2031 890.383 12.0938C891.258 12.9844 891.703 14.0859 891.703 15.3984C891.703 16.7109 891.258 17.8125 890.383 18.7031C889.5 19.5938 888.422 20.0391 887.141 20.0391C885.859 20.0391 884.773 19.5938 883.898 18.7031C883.016 17.8125 882.578 16.7109 882.578 15.3984ZM892.898 15.3984C892.898 13.8047 892.336 12.4453 891.219 11.3203C890.094 10.2031 888.734 9.64062 887.141 9.64062C885.539 9.64062 884.18 10.2031 883.062 11.3203C881.938 12.4453 881.383 13.8047 881.383 15.3984C881.383 17 881.938 18.3594 883.062 19.4766C884.18 20.6016 885.539 21.1562 887.141 21.1562C888.734 21.1562 890.094 20.6016 891.219 19.4766C892.336 18.3594 892.898 17 892.898 15.3984ZM902.18 19.9609H900.977V13.3203H895.703V15.5625C895.703 16.125 895.648 16.6719 895.555 17.1875C895.461 17.7031 895.352 18.1172 895.227 18.4297C895.102 18.7422 894.969 19.0234 894.812 19.2891C894.656 19.5547 894.539 19.7266 894.477 19.8047C894.414 19.8828 894.367 19.9297 894.336 19.9609H893.781V22.9219H894.898V21H901.062V22.9219H902.18V19.9609ZM896.82 14.3594H899.859V19.9609H895.539L895.859 19.5156C896.07 19.2188 896.281 18.7031 896.492 17.9688C896.711 17.2422 896.812 16.4375 896.812 15.5625L896.82 14.3594ZM910.734 17.5781L910.812 17C910.812 15.8906 910.461 14.9766 909.758 14.25C909.055 13.5234 908.18 13.1562 907.133 13.1562C906.117 13.1562 905.242 13.5469 904.492 14.3281C903.742 15.1094 903.375 16.0469 903.375 17.1562C903.375 18.2656 903.75 19.2109 904.508 19.9922C905.258 20.7734 906.164 21.1562 907.211 21.1562C907.594 21.1562 907.969 21.1016 908.336 20.9844C908.703 20.8672 909 20.7422 909.234 20.6016C909.469 20.4609 909.68 20.3047 909.883 20.125C910.086 19.9453 910.211 19.8203 910.273 19.7422C910.336 19.6641 910.383 19.6094 910.414 19.5625L909.695 18.8438L909.422 19.1562C909.25 19.375 908.953 19.5859 908.547 19.7969C908.133 20.0156 907.688 20.1172 907.211 20.1172C906.492 20.1172 905.875 19.8672 905.344 19.3594C904.812 18.8594 904.531 18.2578 904.492 17.5625L910.734 17.5781ZM907.133 14.2031C907.805 14.2031 908.375 14.4297 908.852 14.8828C909.328 15.3359 909.609 15.9141 909.695 16.6016H904.492C904.578 15.9531 904.875 15.3906 905.375 14.9141C905.875 14.4453 906.461 14.2031 907.133 14.2031ZM912.25 17.1562C912.25 18.2656 912.625 19.2109 913.383 19.9922C914.133 20.7734 915.039 21.1562 916.086 21.1562C916.461 21.1562 916.828 21.1016 917.188 20.9844C917.547 20.8672 917.844 20.7422 918.07 20.6016C918.305 20.4609 918.523 20.3047 918.727 20.125C918.938 19.9453 919.078 19.8203 919.141 19.7422C919.203 19.6641 919.25 19.6094 919.281 19.5625L918.484 18.8438L918.227 19.1562C918.047 19.375 917.758 19.5859 917.359 19.7969C916.953 20.0156 916.531 20.1172 916.086 20.1172C915.352 20.1172 914.711 19.8359 914.172 19.2656C913.633 18.6953 913.367 17.9922 913.367 17.1641C913.367 16.3359 913.633 15.6328 914.172 15.0625C914.711 14.4922 915.352 14.2031 916.086 14.2031C916.375 14.2031 916.656 14.25 916.922 14.3359C917.188 14.4297 917.398 14.5312 917.57 14.6406C917.734 14.75 917.891 14.8828 918.031 15.0312C918.172 15.1875 918.266 15.2891 918.305 15.3438C918.352 15.4062 918.383 15.4453 918.398 15.4766L919.203 14.6797L918.867 14.3125C918.648 14.0625 918.273 13.8047 917.758 13.5469C917.242 13.2891 916.68 13.1562 916.078 13.1562C915.039 13.1562 914.141 13.5469 913.383 14.3281C912.625 15.1094 912.25 16.0469 912.25 17.1562ZM922.727 16.6016C922 16.7266 921.445 16.9844 921.062 17.375C920.672 17.7656 920.484 18.2812 920.484 18.9219C920.484 19.5078 920.742 20.0234 921.266 20.4766C921.789 20.9297 922.438 21.1562 923.203 21.1562C923.508 21.1562 923.805 21.1172 924.094 21.0312C924.383 20.9531 924.617 20.8594 924.797 20.75C924.969 20.6406 925.133 20.5234 925.289 20.3828C925.445 20.2422 925.539 20.1484 925.586 20.0938C925.633 20.0391 925.664 19.9922 925.688 19.9609V21H926.805V16.1172C926.805 15.2812 926.516 14.5781 925.938 14.0078C925.359 13.4453 924.641 13.1562 923.766 13.1562C923.422 13.1562 923.078 13.2109 922.75 13.3125C922.422 13.4141 922.156 13.5312 921.953 13.6562C921.75 13.7891 921.555 13.9375 921.367 14.1016C921.18 14.2656 921.062 14.3828 921.008 14.4453C920.953 14.5078 920.914 14.5625 920.883 14.6016L921.602 15.3203L921.844 15.0469C922 14.8594 922.258 14.6719 922.617 14.4844C922.977 14.2969 923.359 14.2031 923.766 14.2031C924.328 14.2031 924.789 14.3828 925.148 14.7344C925.508 15.0938 925.688 15.5547 925.688 16.1172L922.727 16.6016ZM923.203 20.1172C922.703 20.1172 922.305 20.0078 922.023 19.7812C921.742 19.5547 921.602 19.2656 921.602 18.9219C921.602 18.2031 922.086 17.75 923.047 17.5625L925.688 17.0781V17.5625C925.688 18.3203 925.453 18.9375 924.984 19.4062C924.516 19.8828 923.922 20.1172 923.203 20.1172ZM929.594 19.5625L928.156 22.6797L928.875 23.0781L930.719 20.2031L929.594 19.5625ZM942.398 16.7578H938.078L940.242 11.4766L942.398 16.7578ZM942.883 17.8828L944.164 21H945.438L940.797 9.79688H939.68L935.039 21H936.32L937.602 17.8828H942.883ZM954.164 19.9609H952.961V13.3203H947.688V15.5625C947.688 16.125 947.633 16.6719 947.539 17.1875C947.445 17.7031 947.336 18.1172 947.211 18.4297C947.086 18.7422 946.953 19.0234 946.797 19.2891C946.641 19.5547 946.523 19.7266 946.461 19.8047C946.398 19.8828 946.352 19.9297 946.32 19.9609H945.766V22.9219H946.883V21H953.047V22.9219H954.164V19.9609ZM948.805 14.3594H951.844V19.9609H947.523L947.844 19.5156C948.055 19.2188 948.266 18.7031 948.477 17.9688C948.695 17.2422 948.797 16.4375 948.797 15.5625L948.805 14.3594ZM962.641 15.3203V21H963.758V13.3203H962.875L959.836 17.1562L956.797 13.3203H955.922V21H957.039V15.3203L959.836 18.8438L962.641 15.3203ZM966.328 21H967.445V13.3203H966.328V21ZM966.164 10.7578C966.164 10.9609 966.227 11.1328 966.367 11.2734C966.508 11.4141 966.68 11.4766 966.883 11.4766C967.086 11.4766 967.25 11.4141 967.391 11.2734C967.531 11.1328 967.602 10.9609 967.602 10.7578C967.602 10.5547 967.531 10.3906 967.391 10.25C967.25 10.1094 967.086 10.0391 966.883 10.0391C966.68 10.0391 966.508 10.1094 966.367 10.25C966.227 10.3906 966.164 10.5547 966.164 10.7578ZM971.133 17.1641C971.133 16.375 971.406 15.6875 971.969 15.0938C972.531 14.5 973.156 14.2031 973.852 14.2031C974.508 14.2031 975.102 14.4922 975.625 15.0703C976.148 15.6484 976.414 16.3438 976.414 17.1641C976.414 17.9844 976.148 18.6797 975.625 19.2578C975.102 19.8359 974.508 20.1172 973.852 20.1172C973.156 20.1172 972.531 19.8281 971.969 19.2344C971.406 18.6406 971.133 17.9531 971.133 17.1641ZM971.133 19.7969L971.242 19.9453C971.32 20.0391 971.43 20.1562 971.586 20.2891C971.742 20.4219 971.922 20.5547 972.133 20.6797C972.336 20.8125 972.594 20.9219 972.898 21.0156C973.203 21.1094 973.523 21.1562 973.852 21.1562C974.836 21.1562 975.695 20.7656 976.43 19.9844C977.164 19.2031 977.531 18.2578 977.531 17.1641C977.531 16.0703 977.156 15.125 976.422 14.3438C975.688 13.5547 974.828 13.1641 973.852 13.1641C973.523 13.1641 973.203 13.2109 972.891 13.3047C972.578 13.3984 972.328 13.5078 972.133 13.6328C971.93 13.7578 971.75 13.8984 971.578 14.0547C971.406 14.2109 971.297 14.3203 971.242 14.3828C971.188 14.4453 971.148 14.5 971.133 14.5312V13.3281H970.016V24.3672H971.133V19.7969ZM981.211 16.6016C980.484 16.7266 979.93 16.9844 979.547 17.375C979.156 17.7656 978.969 18.2812 978.969 18.9219C978.969 19.5078 979.227 20.0234 979.75 20.4766C980.273 20.9297 980.922 21.1562 981.688 21.1562C981.992 21.1562 982.289 21.1172 982.578 21.0312C982.867 20.9531 983.102 20.8594 983.281 20.75C983.453 20.6406 983.617 20.5234 983.773 20.3828C983.93 20.2422 984.023 20.1484 984.07 20.0938C984.117 20.0391 984.148 19.9922 984.172 19.9609V21H985.289V16.1172C985.289 15.2812 985 14.5781 984.422 14.0078C983.844 13.4453 983.125 13.1562 982.25 13.1562C981.906 13.1562 981.562 13.2109 981.234 13.3125C980.906 13.4141 980.641 13.5312 980.438 13.6562C980.234 13.7891 980.039 13.9375 979.852 14.1016C979.664 14.2656 979.547 14.3828 979.492 14.4453C979.438 14.5078 979.398 14.5625 979.367 14.6016L980.086 15.3203L980.328 15.0469C980.484 14.8594 980.742 14.6719 981.102 14.4844C981.461 14.2969 981.844 14.2031 982.25 14.2031C982.812 14.2031 983.273 14.3828 983.633 14.7344C983.992 15.0938 984.172 15.5547 984.172 16.1172L981.211 16.6016ZM981.688 20.1172C981.188 20.1172 980.789 20.0078 980.508 19.7812C980.227 19.5547 980.086 19.2656 980.086 18.9219C980.086 18.2031 980.57 17.75 981.531 17.5625L984.172 17.0781V17.5625C984.172 18.3203 983.938 18.9375 983.469 19.4062C983 19.8828 982.406 20.1172 981.688 20.1172ZM988.641 13.3203V15.5625C988.641 16.8203 988.57 17.7891 988.445 18.4688C988.32 19.1406 988.164 19.5781 987.977 19.7656C987.789 19.9531 987.531 20.0469 987.203 20.0469C986.984 20.0469 986.773 19.9922 986.562 19.8906V21.0078L986.672 21.0391C986.734 21.0703 986.828 21.0938 986.961 21.125C987.094 21.1484 987.227 21.1641 987.359 21.1641C987.742 21.1641 988.07 21.0859 988.344 20.9297C988.609 20.7734 988.859 20.5 989.086 20.1094C989.305 19.7188 989.477 19.1406 989.586 18.3906C989.695 17.6406 989.758 16.6953 989.758 15.5703V14.3672H993.117V21.0078H994.242V13.3281L988.641 13.3203ZM997.914 19.9609V16.9219H999.914C1000.42 16.9219 1000.83 17.0625 1001.13 17.3438C1001.44 17.625 1001.59 17.9922 1001.59 18.4375C1001.59 18.8906 1001.44 19.2578 1001.13 19.5391C1000.83 19.8203 1000.43 19.9609 999.93 19.9609H997.914ZM1002.71 18.4453C1002.71 17.6797 1002.46 17.0547 1001.96 16.5859C1001.46 16.1172 1000.77 15.8828 999.914 15.8828H997.914V13.3203H996.797V21H999.93C1000.79 21 1001.47 20.7656 1001.97 20.2969C1002.46 19.8281 1002.71 19.2109 1002.71 18.4453ZM1004.16 17.1562C1004.16 18.2656 1004.53 19.2109 1005.29 19.9922C1006.04 20.7734 1006.95 21.1562 1007.99 21.1562C1008.37 21.1562 1008.73 21.1016 1009.09 20.9844C1009.45 20.8672 1009.75 20.7422 1009.98 20.6016C1010.21 20.4609 1010.43 20.3047 1010.63 20.125C1010.84 19.9453 1010.98 19.8203 1011.05 19.7422C1011.11 19.6641 1011.16 19.6094 1011.19 19.5625L1010.39 18.8438L1010.13 19.1562C1009.95 19.375 1009.66 19.5859 1009.27 19.7969C1008.86 20.0156 1008.44 20.1172 1007.99 20.1172C1007.26 20.1172 1006.62 19.8359 1006.08 19.2656C1005.54 18.6953 1005.27 17.9922 1005.27 17.1641C1005.27 16.3359 1005.54 15.6328 1006.08 15.0625C1006.62 14.4922 1007.26 14.2031 1007.99 14.2031C1008.28 14.2031 1008.56 14.25 1008.83 14.3359C1009.09 14.4297 1009.3 14.5312 1009.48 14.6406C1009.64 14.75 1009.8 14.8828 1009.94 15.0312C1010.08 15.1875 1010.17 15.2891 1010.21 15.3438C1010.26 15.4062 1010.29 15.4453 1010.3 15.4766L1011.11 14.6797L1010.77 14.3125C1010.55 14.0625 1010.18 13.8047 1009.66 13.5469C1009.15 13.2891 1008.59 13.1562 1007.98 13.1562C1006.95 13.1562 1006.05 13.5469 1005.29 14.3281C1004.53 15.1094 1004.16 16.0469 1004.16 17.1562ZM1014.07 19.9609V16.9219H1016.07C1016.58 16.9219 1016.98 17.0625 1017.29 17.3438C1017.59 17.625 1017.75 17.9922 1017.75 18.4375C1017.75 18.8906 1017.59 19.2578 1017.29 19.5391C1016.98 19.8203 1016.59 19.9609 1016.09 19.9609H1014.07ZM1018.87 18.4453C1018.87 17.6797 1018.62 17.0547 1018.12 16.5859C1017.62 16.1172 1016.93 15.8828 1016.07 15.8828H1014.07V13.3203H1012.95V21H1016.09C1016.95 21 1017.62 20.7656 1018.12 20.2969C1018.62 19.8281 1018.87 19.2109 1018.87 18.4453ZM1021.99 18.8438L1023.52 17.2422L1026.23 21H1027.52L1024.23 16.4375L1027.2 13.3203H1025.83L1021.99 17.3984V13.3203H1020.88V21H1021.99V18.8438ZM1034.71 13.3203L1030.07 19.0781V13.3203H1028.95V21H1029.91L1034.55 15.2422V21H1035.67V13.3203H1034.71ZM1041.59 11.1562C1041.19 11.1562 1040.87 11.0391 1040.65 10.8047C1040.42 10.5703 1040.31 10.2344 1040.31 9.79688H1039.43C1039.43 10.4375 1039.62 10.9609 1040.03 11.3594C1040.43 11.7656 1040.95 11.9609 1041.59 11.9609C1042.23 11.9609 1042.75 11.7656 1043.15 11.3594C1043.55 10.9609 1043.75 10.4375 1043.75 9.79688H1042.88C1042.88 10.2344 1042.76 10.5703 1042.54 10.8047C1042.31 11.0391 1042 11.1562 1041.59 11.1562ZM1043.99 13.3203L1039.35 19.0781V13.3203H1038.23V21H1039.19L1043.83 15.2422V21H1044.95V13.3203H1043.99ZM1056.08 21H1057.2V13.3203H1050.56V21H1051.68V14.375H1056.08V21ZM1060.88 17.1641C1060.88 16.375 1061.16 15.6875 1061.72 15.0938C1062.28 14.5 1062.91 14.2031 1063.6 14.2031C1064.26 14.2031 1064.85 14.4922 1065.38 15.0703C1065.9 15.6484 1066.16 16.3438 1066.16 17.1641C1066.16 17.9844 1065.9 18.6797 1065.38 19.2578C1064.85 19.8359 1064.26 20.1172 1063.6 20.1172C1062.91 20.1172 1062.28 19.8281 1061.72 19.2344C1061.16 18.6406 1060.88 17.9531 1060.88 17.1641ZM1060.88 19.7969L1060.99 19.9453C1061.07 20.0391 1061.18 20.1562 1061.34 20.2891C1061.49 20.4219 1061.67 20.5547 1061.88 20.6797C1062.09 20.8125 1062.34 20.9219 1062.65 21.0156C1062.95 21.1094 1063.27 21.1562 1063.6 21.1562C1064.59 21.1562 1065.45 20.7656 1066.18 19.9844C1066.91 19.2031 1067.28 18.2578 1067.28 17.1641C1067.28 16.0703 1066.91 15.125 1066.17 14.3438C1065.44 13.5547 1064.58 13.1641 1063.6 13.1641C1063.27 13.1641 1062.95 13.2109 1062.64 13.3047C1062.33 13.3984 1062.08 13.5078 1061.88 13.6328C1061.68 13.7578 1061.5 13.8984 1061.33 14.0547C1061.16 14.2109 1061.05 14.3203 1060.99 14.3828C1060.94 14.4453 1060.9 14.5 1060.88 14.5312V13.3281H1059.77V24.3672H1060.88V19.7969ZM1068.96 20.3594C1068.96 20.5938 1069.03 20.7891 1069.17 20.9375C1069.31 21.0859 1069.51 21.1562 1069.75 21.1562C1070 21.1562 1070.2 21.0859 1070.34 20.9375C1070.48 20.7891 1070.55 20.5938 1070.55 20.3594C1070.55 20.125 1070.48 19.9375 1070.34 19.7891C1070.2 19.6406 1070 19.5625 1069.75 19.5625C1069.51 19.5625 1069.31 19.6406 1069.17 19.7891C1069.03 19.9375 1068.96 20.125 1068.96 20.3594ZM1072.88 19.5625L1071.44 22.6797L1072.16 23.0781L1074 20.2031L1072.88 19.5625ZM1084.48 15.0781L1084.66 15.0156C1084.77 14.9688 1084.91 14.8828 1085.07 14.7578C1085.23 14.6328 1085.39 14.4844 1085.55 14.3047C1085.73 14.1328 1085.87 13.8906 1085.98 13.5938C1086.1 13.2969 1086.16 12.9688 1086.16 12.6016C1086.16 11.7812 1085.84 11.0859 1085.21 10.5078C1084.59 9.92969 1083.78 9.64062 1082.8 9.64062C1082.38 9.64062 1081.98 9.70312 1081.59 9.8125C1081.2 9.92188 1080.88 10.0469 1080.64 10.1797C1080.41 10.3125 1080.18 10.4609 1079.97 10.6328C1079.77 10.8047 1079.63 10.9297 1079.57 10.9922C1079.52 11.0625 1079.47 11.1172 1079.44 11.1562L1080.23 12.0391L1080.34 11.9141C1080.41 11.8281 1080.52 11.7188 1080.66 11.5938C1080.8 11.4688 1080.98 11.3359 1081.16 11.2109C1081.36 11.0859 1081.6 10.9766 1081.9 10.8906C1082.2 10.8047 1082.49 10.7578 1082.8 10.7578C1083.46 10.7578 1083.98 10.9375 1084.38 11.2812C1084.77 11.6328 1084.95 12.0703 1084.95 12.6016C1084.95 13.2109 1084.77 13.7031 1084.38 14.0625C1084 14.4219 1083.47 14.6016 1082.8 14.6016H1081.67V15.7188H1082.8C1083.59 15.7188 1084.23 15.9297 1084.71 16.3516C1085.2 16.7734 1085.44 17.2891 1085.44 17.8828C1085.44 18.5 1085.2 19.0156 1084.73 19.4297C1084.26 19.8359 1083.61 20.0469 1082.8 20.0469C1082.42 20.0469 1082.07 19.9922 1081.73 19.8984C1081.38 19.8047 1081.11 19.6953 1080.89 19.5703C1080.68 19.4453 1080.48 19.3125 1080.3 19.1562C1080.12 19 1080 18.8906 1079.95 18.8281C1079.9 18.7656 1079.86 18.7109 1079.84 18.6797L1079.03 19.4766L1079.16 19.6562C1079.26 19.7734 1079.41 19.9141 1079.62 20.0781C1079.84 20.25 1080.09 20.4141 1080.37 20.5703C1080.65 20.7266 1081 20.8672 1081.43 20.9844C1081.87 21.1016 1082.32 21.1562 1082.8 21.1562C1083.92 21.1562 1084.83 20.8359 1085.52 20.1875C1086.21 19.5391 1086.55 18.7734 1086.55 17.8828C1086.55 17.4453 1086.48 17.0547 1086.34 16.7031C1086.19 16.3516 1086.02 16.0781 1085.84 15.8906C1085.66 15.7031 1085.45 15.5469 1085.2 15.4062C1084.97 15.2656 1084.8 15.1797 1084.7 15.1484C1084.61 15.1172 1084.53 15.0938 1084.48 15.0781Z" fill="white"/>
<g clip-path="url(#clip0)">
<path d="M1320 16.0733C1320 9.40541 1314.63 4 1308 4C1301.37 4 1296 9.40541 1296 16.0733C1296 22.0995 1300.39 27.0943 1306.13 28V19.5633H1303.08V16.0733H1306.13V13.4134C1306.13 10.3875 1307.92 8.71615 1310.66 8.71615C1311.97 8.71615 1313.34 8.95195 1313.34 8.95195V11.9231H1311.83C1310.34 11.9231 1309.87 12.8538 1309.87 13.8086V16.0733H1313.2L1312.67 19.5633H1309.87V28C1315.61 27.0943 1320 22.0995 1320 16.0733Z" fill="white"/>
</g>
<circle cx="1283" cy="16" r="3" fill="#E6E6F0"/>
<circle cx="1104" cy="17" r="3" fill="#E6E6F0"/>
<circle cx="851" cy="17" r="3" fill="#E6E6F0"/>
<rect x="778" y="4" width="29" height="24" rx="8" fill="#F0145A"/>
<path d="M786.506 11.5977H784.59L787.59 17.2402L787.35 17.6621C787.027 18.2246 786.564 18.5 785.961 18.5C785.68 18.5 785.439 18.4648 785.24 18.3828V19.9414L785.363 19.9766C785.445 20.0117 785.562 20.041 785.721 20.0703C785.885 20.1055 786.043 20.1172 786.201 20.1172C786.893 20.1172 787.467 19.9297 787.93 19.5547C788.398 19.1797 788.803 18.6289 789.143 17.9023L792.084 11.5977H790.162L788.48 15.5586L786.506 11.5977ZM795.967 11.5977H794.162V20H795.967V17.5977L797.045 16.4023L799.506 20H801.604L798.246 15.0781L801.363 11.5977H799.266L795.967 15.2598V11.5977ZM814.064 11.5977V20H815.869V17.2402H817.604C818.471 17.2402 819.186 16.9707 819.754 16.4316C820.316 15.8926 820.604 15.2188 820.604 14.4219C820.604 13.625 820.316 12.9512 819.748 12.4121C819.18 11.873 818.465 11.6035 817.604 11.6035L814.064 11.5977ZM817.545 13.2266C817.902 13.2266 818.201 13.3379 818.441 13.5723C818.682 13.8066 818.805 14.0879 818.805 14.4277C818.805 14.7617 818.682 15.043 818.441 15.2773C818.201 15.5059 817.902 15.623 817.545 15.623H815.869V13.2266H817.545ZM823.994 11.5977H822.078L825.078 17.2402L824.838 17.6621C824.516 18.2246 824.053 18.5 823.449 18.5C823.168 18.5 822.928 18.4648 822.729 18.3828V19.9414L822.852 19.9766C822.934 20.0117 823.051 20.041 823.209 20.0703C823.373 20.1055 823.531 20.1172 823.689 20.1172C824.381 20.1172 824.955 19.9297 825.418 19.5547C825.887 19.1797 826.291 18.6289 826.631 17.9023L829.572 11.5977H827.65L825.969 15.5586L823.994 11.5977ZM843.838 18.3828V16.5195H847.254V14.9023H843.838V13.2207H848.215V11.5977H842.033V20H848.338V18.3828H843.838ZM856.715 11.5977V16.9414L852.578 11.5977H851.014V20H852.818V14.6621L856.955 20H858.514V11.5977H856.715Z" fill="white"/>
<path d="M10.3513 57.0912C10.3513 55.9798 9.9699 55.0428 9.21807 54.2691C8.46624 53.4955 7.55097 53.1142 6.48316 53.1142C5.51341 53.1142 4.67441 53.4192 3.96617 54.0403C3.26882 54.6505 2.83298 55.3914 2.66953 56.274H1.63441V53.2776H0V60.9048H1.63441V57.7995H2.66953C2.83298 58.7256 3.26882 59.5101 3.96617 60.1312C4.66351 60.7523 5.50251 61.0683 6.48316 61.0683C7.55097 61.0683 8.46624 60.6869 9.21807 59.9133C9.9699 59.1506 10.3513 58.2026 10.3513 57.0912ZM8.71685 57.0912C8.71685 57.8104 8.49893 58.4096 8.06309 58.8782C7.61635 59.3576 7.09334 59.5973 6.48316 59.5973C5.87298 59.5973 5.34997 59.3576 4.91412 58.8782C4.46738 58.4096 4.24946 57.8104 4.24946 57.0912C4.24946 56.3721 4.46738 55.7728 4.91412 55.2934C5.34997 54.8248 5.87298 54.5851 6.48316 54.5851C7.09334 54.5851 7.61635 54.8248 8.06309 55.2934C8.49893 55.7728 8.71685 56.3721 8.71685 57.0912Z" fill="white"/>
<path d="M12.9603 53.2781V60.9054H14.5947V58.3993H16.1746C16.9591 58.3993 17.6129 58.1487 18.125 57.6583C18.6371 57.168 18.8986 56.5578 18.8986 55.8387C18.8986 55.1087 18.6371 54.5094 18.125 54.0082C17.602 53.5178 16.9591 53.2781 16.1746 53.2781H12.9603ZM16.1201 54.7491C16.447 54.7491 16.7194 54.858 16.9373 55.0651C17.1553 55.2721 17.2642 55.5336 17.2642 55.8387C17.2642 56.1438 17.1553 56.4053 16.9373 56.6123C16.7194 56.8193 16.447 56.9283 16.1201 56.9283H14.5947V54.7491H16.1201Z" fill="white"/>
<path d="M28.2618 60.9054V53.2781H26.8453L23.0862 58.1269V53.2781H21.4518V60.9054H22.8683L26.6274 56.0566V60.9054H28.2618Z" fill="white"/>
<path d="M30.3245 59.4344V62.4853H31.959V60.9054H36.5353V62.4853H38.1697V59.4344H37.2435V53.2781H31.959V55.6208C31.959 56.1329 31.9154 56.6123 31.8282 57.0591C31.741 57.5167 31.643 57.8763 31.5449 58.1487C31.4359 58.4102 31.3161 58.6499 31.1744 58.8787C31.0328 59.0966 30.9456 59.2383 30.8911 59.3036C30.8258 59.3581 30.7931 59.4126 30.7604 59.4344H30.3245ZM33.5934 55.6208V54.7491H35.6091V59.4344H32.3948L32.5256 59.3036C32.6018 59.2165 32.6999 59.0748 32.8197 58.8678C32.9396 58.6608 33.0486 58.4211 33.1684 58.1487C33.2883 57.8763 33.3863 57.5058 33.4626 57.0591C33.5498 56.6123 33.5934 56.1329 33.5934 55.6208Z" fill="white"/>
<path d="M47.3114 60.9054V53.2781H45.8949L42.1358 58.1269V53.2781H40.5014V60.9054H41.9178L45.677 56.0566V60.9054H47.3114Z" fill="white"/>
<path d="M51.8817 53.2781H50.2473V55.6208C50.2473 56.536 50.487 57.2443 50.9665 57.7455C51.4568 58.2576 52.1214 58.5082 52.9713 58.5082C53.7014 58.5082 54.3007 58.3666 54.7692 58.0724V60.9054H56.4036V53.2781H54.7692V56.4925L54.5839 56.6341C54.4641 56.7213 54.2789 56.8084 54.0282 56.9065C53.7776 56.9937 53.5161 57.0373 53.2437 57.0373C52.8079 57.0373 52.4701 56.9174 52.2304 56.6777C52.0016 56.4271 51.8817 56.0784 51.8817 55.6208V53.2781Z" fill="white"/>
<path d="M65.9856 53.2781H64.3512V56.329H61.0824V53.2781H59.448V60.9054H61.0824V57.8H64.3512V60.9054H65.9856V53.2781Z" fill="white"/>
<path d="M72.9549 57.691H71.1026L72.0288 55.1849L72.9549 57.691ZM73.4997 59.1075L74.1535 60.9054H75.8969L72.9004 53.2781H71.1571L68.1606 60.9054H69.904L70.5578 59.1075H73.4997Z" fill="white"/>
<path d="M83.0222 53.2781H81.3878V60.9054H83.0222V58.7262L84.0029 57.6365L86.2366 60.9054H88.1434L85.0925 56.438L87.9255 53.2781H86.0187L83.0222 56.6014V53.2781Z" fill="white"/>
<path d="M91.4614 57.0912C91.4614 56.3939 91.7012 55.7946 92.1806 55.3152C92.6491 54.8248 93.2266 54.5851 93.9131 54.5851C94.5995 54.5851 95.177 54.8248 95.6455 55.3152C96.125 55.7946 96.3647 56.3939 96.3647 57.0912C96.3647 57.7995 96.125 58.3879 95.6455 58.8673C95.177 59.3576 94.5995 59.5973 93.9131 59.5973C93.2266 59.5973 92.6491 59.3576 92.1806 58.8673C91.7012 58.3879 91.4614 57.7995 91.4614 57.0912ZM89.7726 57.0912C89.7726 58.1808 90.1757 59.1288 90.9711 59.9024C91.7665 60.676 92.7472 61.0683 93.9131 61.0683C95.0789 61.0683 96.0596 60.676 96.855 59.9024C97.6504 59.1288 98.0536 58.1808 98.0536 57.0912C98.0536 55.9907 97.6504 55.0537 96.855 54.28C96.0596 53.5064 95.0789 53.1142 93.9131 53.1142C92.7472 53.1142 91.7665 53.5064 90.9711 54.28C90.1757 55.0537 89.7726 55.9907 89.7726 57.0912Z" fill="white"/>
<path d="M104.748 56.6014L102.133 53.2781H100.662V60.9054H102.297V55.8387L104.748 58.9441L107.2 55.8169V60.9054H108.834V53.2781H107.385L104.748 56.6014Z" fill="white"/>
<path d="M118.359 53.2781H111.876V60.9054H113.511V54.7491H116.725V60.9054H118.359V53.2781Z" fill="white"/>
<path d="M125.33 57.691H123.477L124.404 55.1849L125.33 57.691ZM125.875 59.1075L126.528 60.9054H128.272L125.275 53.2781H123.532L120.536 60.9054H122.279L122.933 59.1075H125.875Z" fill="white"/>
<path d="M136.983 53.2781H135.349V56.329H132.08V53.2781H130.445V60.9054H132.08V57.8H135.349V60.9054H136.983V53.2781Z" fill="white"/>
<path d="M141.662 53.2781H140.027V60.9054H141.662V53.2781Z" fill="white"/>
<path d="M150.373 53.2781H146.995C146.232 53.2781 145.611 53.5178 145.121 53.9973C144.63 54.4767 144.38 55.076 144.38 55.7842C144.38 56.0893 144.434 56.3726 144.521 56.645C144.619 56.9174 144.728 57.1244 144.859 57.277C144.979 57.4295 145.11 57.5712 145.273 57.7019C145.426 57.8327 145.535 57.9198 145.6 57.9525C145.655 57.9743 145.709 58.007 145.742 58.0179L144.107 60.9054H145.851L147.322 58.2358H148.738V60.9054H150.373V53.2781ZM146.014 55.7842C146.014 55.4791 146.112 55.2394 146.308 55.0433C146.504 54.8472 146.755 54.7491 147.049 54.7491H148.738V56.7649H147.049C146.755 56.7649 146.504 56.6668 146.308 56.4816C146.112 56.2963 146.014 56.0566 146.014 55.7842Z" fill="white"/>
<path d="M4.98113 7.62939e-05H0V35.975H4.98113V22.6286C4.98113 20.3708 5.54273 18.5896 6.66593 17.3353C7.78912 16.0809 9.32741 15.4286 11.232 15.4286C12.8679 15.4286 14.2353 16.0307 15.3341 17.1847C16.4329 18.3638 16.9944 19.844 16.9944 21.6252V36.0001H22V21.6252C22 18.3137 21.0966 15.7046 19.2897 13.7478C17.4828 11.791 15.1143 10.8126 12.2331 10.8126C11.4029 10.8126 10.5727 10.913 9.76693 11.1388C8.93674 11.3645 8.27747 11.6154 7.74029 11.8914C7.20311 12.1673 6.69034 12.4684 6.22642 12.8196C5.76249 13.1708 5.44506 13.4217 5.29856 13.5722C5.15205 13.7227 5.02997 13.8231 4.98113 13.8983V7.62939e-05Z" fill="#F0145A"/>
<path d="M33.135 0H28V35.945H33.135V0Z" fill="white"/>
<path d="M63.4222 25.4178L63.6789 22.8503C63.6789 19.4098 62.5492 16.5342 60.2385 14.2235C57.9277 11.9127 55.0521 10.783 51.6117 10.783C48.1712 10.783 45.1929 12.0154 42.7281 14.4802C40.2633 16.945 39.0309 19.872 39.0309 23.3638C39.0309 26.9583 40.3147 30.0393 42.8308 32.6068C45.347 35.1743 48.3766 36.4581 51.8684 36.4581C53.2035 36.4581 54.4359 36.2527 55.6683 35.8932C56.9007 35.4824 57.9277 35.0716 58.6466 34.6608C59.4169 34.1987 60.1871 33.6852 60.8547 33.1203C61.5222 32.5555 61.9844 32.1447 62.1898 31.8879C62.3952 31.6312 62.5492 31.4771 62.6519 31.3231L59.3142 27.9853L58.5439 28.961C58.0304 29.5772 57.1575 30.1934 55.9251 30.8609C54.6413 31.5285 53.3062 31.8366 51.8684 31.8366C49.8658 31.8366 48.1712 31.2204 46.7334 29.9366C45.2956 28.6529 44.4227 27.1637 44.1659 25.4178H63.4222ZM51.6117 15.1478C53.5116 15.1478 55.0521 15.7126 56.3359 16.791C57.5683 17.9207 58.3385 19.3071 58.6466 21.053H44.3713C44.8335 19.3071 45.6551 17.9207 46.9388 16.791C48.1712 15.7126 49.7631 15.1478 51.6117 15.1478Z" fill="white"/>
<path d="M87.3712 34.4554C87.3712 36.7148 86.7037 38.5634 85.3172 40.0012C83.9821 41.3877 82.2876 42.1066 80.1822 42.1066C79.2579 42.1066 78.3336 41.9525 77.4607 41.6958C76.5877 41.439 75.9202 41.1309 75.3553 40.7715C74.7905 40.412 74.277 40.0526 73.7635 39.5904C73.3013 39.1283 72.9932 38.8202 72.8392 38.6661C72.6851 38.5121 72.5824 38.358 72.4797 38.2553L69.142 41.5931L69.5528 42.1066C69.8095 42.466 70.2717 42.9282 70.8879 43.4417C71.5041 43.9038 72.223 44.4173 73.0446 44.9308C73.8662 45.393 74.8932 45.8038 76.1769 46.1632C77.4607 46.5227 78.7958 46.7281 80.1822 46.7281C83.674 46.7281 86.5496 45.547 88.9631 43.1849C91.3252 40.7715 92.5062 37.8959 92.5062 34.404V11.2965H87.3712V13.864L86.4983 13.0938C85.9334 12.5803 85.0605 12.0668 83.8281 11.5533C82.5957 11.0398 81.2606 10.783 79.9255 10.783C76.7931 10.783 74.1229 11.9641 71.8122 14.3775C69.5014 16.791 68.3717 19.6666 68.3717 23.107C68.3717 26.5475 69.5014 29.4231 71.8122 31.8365C74.1229 34.25 76.7931 35.431 79.9255 35.431C80.7984 35.431 81.62 35.3284 82.493 35.1229C83.3146 34.8662 83.9821 34.6094 84.547 34.3527C85.1118 34.0959 85.6253 33.7878 86.0875 33.4284C86.5496 33.0689 86.9091 32.8122 87.0118 32.7095L87.3712 32.35V34.4554ZM73.5067 23.107C73.5067 20.9503 74.1743 19.1531 75.5607 17.6639C76.9472 16.1748 78.5904 15.4045 80.439 15.4045C82.2876 15.4045 83.9308 16.1748 85.3172 17.6639C86.6523 19.1531 87.3712 20.9503 87.3712 23.107C87.3712 25.2637 86.6523 27.061 85.3172 28.5501C83.9308 30.0393 82.2876 30.8095 80.439 30.8095C78.5904 30.8095 76.9472 30.0393 75.5607 28.5501C74.1743 27.061 73.5067 25.2637 73.5067 23.107Z" fill="white"/>
<path d="M119.309 35.9446V20.026C119.309 17.4072 118.333 15.1991 116.433 13.4532C114.533 11.656 112.068 10.783 109.039 10.783C107.858 10.783 106.677 10.9371 105.547 11.2452C104.417 11.6046 103.493 11.9641 102.825 12.3749C102.158 12.7857 101.49 13.2478 100.874 13.8127C100.258 14.3262 99.8985 14.6856 99.6931 14.891C99.539 15.0964 99.385 15.2505 99.2823 15.4045L102.62 18.7423L103.288 17.8693C103.698 17.3045 104.417 16.791 105.496 16.2261C106.574 15.6613 107.755 15.4045 109.039 15.4045C110.528 15.4045 111.76 15.8667 112.736 16.7396C113.712 17.6126 114.174 18.7423 114.174 20.026L105.188 21.5665C102.979 21.926 101.182 22.7989 99.9498 24.1854C98.6661 25.5719 97.9985 27.2664 97.9985 29.2691C97.9985 31.169 98.8201 32.8122 100.463 34.25C102.158 35.7392 104.212 36.4581 106.728 36.4581C107.601 36.4581 108.423 36.3554 109.244 36.0986C110.117 35.8932 110.785 35.6365 111.35 35.3797C111.914 35.123 112.428 34.8149 112.89 34.4554C113.352 34.096 113.66 33.8392 113.866 33.7365C114.02 33.5825 114.122 33.4284 114.174 33.3771V35.9446H119.309ZM107.498 31.8366C106.163 31.8366 105.085 31.5285 104.315 30.9123C103.493 30.2961 103.134 29.5772 103.134 28.7556C103.134 27.8826 103.39 27.1124 103.955 26.5475C104.52 25.9827 105.29 25.5719 106.215 25.4178L114.174 24.134V24.6475C114.174 26.9583 113.609 28.7042 112.428 29.988C111.247 31.2204 109.604 31.8366 107.498 31.8366Z" fill="white"/>
<path d="M130.64 -3.8147e-06H125.505V35.945H130.64V-3.8147e-06Z" fill="white"/>
<path d="M153.989 14.1208L153.681 13.7613C153.475 13.5559 153.167 13.2992 152.705 12.9397C152.243 12.5803 151.729 12.2722 151.165 11.9127C150.6 11.6046 149.829 11.3479 148.905 11.0911C147.981 10.8857 147.005 10.783 146.03 10.783C143.513 10.783 141.459 11.5019 139.816 12.9397C138.122 14.4289 137.3 16.0721 137.3 17.972C137.3 19.3585 137.608 20.4882 138.224 21.5152C138.841 22.4908 139.611 23.2097 140.586 23.6205C141.511 24.0827 142.538 24.5448 143.616 24.9043C144.694 25.2638 145.67 25.5719 146.646 25.8286C147.57 26.1367 148.34 26.4962 148.957 26.9583C149.573 27.4205 149.881 28.0367 149.881 28.7556C149.881 29.6799 149.521 30.4501 148.854 31.015C148.186 31.5285 147.159 31.8366 145.773 31.8366C144.643 31.8366 143.513 31.5285 142.435 31.015C141.357 30.4501 140.689 29.988 140.33 29.6285C140.022 29.2691 139.765 28.961 139.611 28.7556L136.273 32.0933L136.633 32.5555C136.889 32.8636 137.249 33.223 137.762 33.6338C138.327 34.096 138.943 34.5068 139.611 34.9176C140.33 35.3284 141.254 35.6878 142.332 35.9959C143.411 36.304 144.592 36.4581 145.773 36.4581C148.494 36.4581 150.754 35.6878 152.448 34.1987C154.143 32.7095 155.016 30.8609 155.016 28.7556C155.016 27.3691 154.708 26.1881 154.092 25.2638C153.475 24.2881 152.705 23.5692 151.729 23.107C150.805 22.5935 149.778 22.1827 148.7 21.8233C147.621 21.4638 146.646 21.1044 145.67 20.899C144.746 20.6422 143.976 20.2314 143.359 19.7693C142.743 19.3071 142.435 18.6909 142.435 17.972C142.435 17.3045 142.743 16.6883 143.411 16.1748C144.027 15.6613 144.9 15.4045 146.03 15.4045C146.851 15.4045 147.673 15.6099 148.443 15.9694C149.265 16.3288 149.829 16.6369 150.086 16.8937C150.343 17.1504 150.548 17.3558 150.651 17.4585L153.989 14.1208Z" fill="white"/>
<defs>
<clipPath id="clip0">
<rect width="24" height="24" fill="white" transform="translate(1296 4)"/>
</clipPath>
</defs>
</svg>
